<?xml version="1.0" encoding="UTF-8"?>
<svg width="120px" height="125px" viewBox="0 0 120 125" version="1.1" xmlns="http://www.w3.org/2000/svg" xmlns:xlink="http://www.w3.org/1999/xlink">
    <!-- Generator: sketchtool 60.1 (101010) - https://sketch.com -->
    <title>0D0C3DA5-B1F1-4342-AD84-5419A1F64489</title>
    <desc>Created with sketchtool.</desc>
    <g id="Page-1" stroke="none" stroke-width="1" fill="none" fill-rule="evenodd">
        <g id="Homepage-Hi-Fi-Copy" transform="translate(-920.000000, -1624.000000)">
            <g id="Group-20" transform="translate(920.000000, 1624.000000)">
                <circle id="Oval" fill="#4F63F9" cx="60" cy="60" r="60"></circle>
                <g id="Group-19" transform="translate(1.000000, 3.000000)">
                    <g id="Group-209">
                        <path d="M54.8901,75.5545 L50.4431,75.4235 L50.4201,74.8465 L50.2581,77.3035 C50.2821,77.3075 50.3071,77.3105 50.3301,77.3145 C50.5571,77.3475 50.7831,77.3795 51.0091,77.4115 L51.1781,77.4355 C51.4511,77.4735 51.7241,77.5105 51.9961,77.5465 C52.0381,77.5525 52.0801,77.5575 52.1231,77.5635 C52.3561,77.5935 52.5901,77.6225 52.8221,77.6525 C52.8891,77.6605 52.9551,77.6685 53.0221,77.6775 C53.5601,77.7425 54.0931,77.8055 54.6191,77.8645 L54.8361,77.8875 C54.9271,77.8975 55.0161,77.9075 55.1061,77.9165 L54.8901,75.5545 Z" id="Fill-1" fill="#DF356F"></path>
                        <polygon id="Fill-3" fill="#DC0E7A" points="49.6396 103.9969 57.4956 103.9969 56.8546 96.9929 49.3656 94.5009"></polygon>
                        <polygon id="Fill-5" fill="#4E5884" points="47.8715 94.0037 43.2255 121.7077 49.8095 121.7077 49.6395 103.9967 49.3655 94.5007"></polygon>
                        <path d="M22.2407,39.7313 C22.2637,39.1643 23.5757,38.1313 23.4737,37.2463 C23.3727,36.3603 24.8757,35.4793 24.8757,35.4793 C24.8757,35.4793 25.5377,35.2013 26.1697,35.1963 C26.3707,34.9263 26.5707,34.6553 26.7787,34.3893 L26.7757,34.3853 L28.6237,30.3323 L28.5817,24.1553 C28.4907,24.2273 28.4387,24.2663 28.4387,24.2663 C28.4387,24.2663 13.5067,25.0483 21.7347,9.5373 C22.7537,7.6173 23.7347,6.0703 24.6737,4.8333 C21.3197,3.6123 16.4307,4.3943 9.3077,9.4223 C-1.9353,17.3613 1.3307,33.4903 5.6537,33.4903 C5.6537,33.4903 0.1437,30.7213 0.0007,41.0113 C-0.0883,47.3983 8.3797,55.1273 13.1657,51.9503 C14.6307,53.5053 16.3617,54.1553 18.0977,54.1323 C18.8617,49.5343 20.3527,45.1063 22.5047,41.0083 C22.3487,40.4333 22.2327,39.9273 22.2407,39.7313" id="Fill-7" fill="#2E3865"></path>
                        <path d="M47.8715,94.0037 L41.8445,91.9987 C41.8015,98.9457 41.7555,103.9967 41.7555,103.9967 L14.2865,103.9967 C13.7575,105.8917 13.3715,107.8687 13.2075,121.7077 L43.2255,121.7077 L47.8715,94.0037 Z" id="Fill-9" fill="#A2AFCC"></path>
                        <path d="M105.8935,27.1395 C97.7895,23.9525 104.5435,20.8425 103.9945,13.9245 C102.9375,0.5985 86.0315,-4.3755 81.3985,4.3825 C80.5205,6.0425 80.7635,7.2375 81.5325,8.0995 C82.3515,6.7295 83.2895,5.7795 84.2925,5.1635 C84.2685,5.4955 84.3275,5.8685 84.4985,6.2915 C85.3065,8.2785 86.5055,9.5215 87.7955,10.2895 C88.0015,10.3045 88.1255,10.3095 88.1255,10.3095 C88.1255,10.3095 88.0965,10.3545 88.0455,10.4325 C89.7725,11.3735 91.6235,11.5045 92.8915,11.4445 C92.7265,12.0225 92.4725,12.9965 92.2465,14.1685 C92.2535,14.1695 92.2615,14.1685 92.2695,14.1695 C93.6435,14.3475 94.6135,15.6055 94.4355,16.9795 C94.2635,18.3075 93.0805,19.2555 91.7605,19.1555 C91.8125,21.3055 92.3095,23.3365 93.7215,24.4755 C93.7405,24.4915 93.7595,24.5035 93.7785,24.5185 L93.0825,30.7255 C93.0825,30.7255 93.0515,30.7765 92.9935,30.8645 L93.0705,30.8595 C93.1425,30.8895 93.2105,30.9185 93.2815,30.9485 C93.2685,30.9315 93.2575,30.9145 93.2435,30.8985 C93.0515,30.6645 93.3845,30.3285 93.5785,30.5635 C93.7725,30.7995 93.9385,31.0405 94.0775,31.2865 C100.2375,33.9405 102.3095,35.6105 102.7505,36.0085 C103.4065,36.4105 104.0065,36.9255 104.5075,37.5705 C106.8025,40.5165 108.9505,45.7845 108.6655,55.1365 C108.5965,57.4275 108.4135,59.5495 108.1105,61.5165 L108.1125,61.5155 L108.0845,61.6845 C108.0715,61.7725 108.0575,61.8605 108.0425,61.9465 L107.0005,68.4525 C106.8395,69.4595 106.7155,70.4695 106.6205,71.4805 C121.5185,66.4815 110.1125,52.3955 113.2475,46.1115 C117.4965,37.5985 115.3515,30.8595 105.8935,27.1395" id="Fill-11" fill="#2E3865"></path>
                        <path d="M83.4702,30.5194 C83.8042,30.5114 83.8032,31.0314 83.4702,31.0394 C83.1922,31.0444 82.9302,31.0714 82.6792,31.1104 C83.2892,31.1624 83.7762,31.2444 84.1062,31.3114 C84.4932,28.9034 85.6002,26.3324 85.6002,26.3324 C83.3032,26.7984 81.3152,26.7244 79.9542,25.2894 C79.0202,27.3194 78.0982,29.4774 77.2422,31.7144 C78.6462,31.2704 79.9592,31.0994 81.0772,31.0674 C81.7502,30.7384 82.5372,30.5404 83.4702,30.5194" id="Fill-13" fill="#2E3865"></path>
                        <path d="M30.8173,34.2215 C37.5143,46.7695 41.2783,60.6755 41.8313,74.8925 C42.1923,75.3945 42.6713,75.7665 43.3203,75.9395 L43.3223,75.9395 C43.5543,76.0005 43.7913,76.0605 44.0303,76.1195 C44.0963,76.1355 44.1623,76.1525 44.2293,76.1675 C44.4263,76.2155 44.6253,76.2625 44.8273,76.3085 C44.8773,76.3195 44.9253,76.3305 44.9763,76.3425 C45.2223,76.3975 45.4703,76.4515 45.7223,76.5045 C45.7803,76.5165 45.8403,76.5295 45.8993,76.5405 C46.1053,76.5835 46.3133,76.6255 46.5233,76.6665 C46.5873,76.6795 46.6503,76.6925 46.7153,76.7035 C46.9753,76.7545 47.2373,76.8035 47.5023,76.8525 C47.5263,76.8565 47.5523,76.8615 47.5773,76.8655 C47.8203,76.9095 48.0653,76.9515 48.3103,76.9935 C48.3773,77.0045 48.4433,77.0165 48.5103,77.0275 C48.7563,77.0695 49.0033,77.1095 49.2503,77.1485 C49.2743,77.1525 49.2983,77.1565 49.3223,77.1595 C49.5953,77.2035 49.8703,77.2455 50.1443,77.2865 C50.1823,77.2915 50.2203,77.2975 50.2583,77.3035 L50.4203,74.8465 L50.2783,71.2605 L50.4873,60.7455 C50.5553,57.3435 49.7243,53.9835 48.0783,51.0045 L40.8473,37.9175 C39.5453,36.5935 38.3083,35.5155 37.1623,34.6385 C36.2843,37.9385 33.1803,35.8395 30.8173,34.2215" id="Fill-15" fill="#17B8CA"></path>
                        <path d="M58.5556,56.0731 C63.1566,56.7791 68.1666,55.7121 71.9006,52.9361 L71.9006,64.5051 C71.9056,64.5031 71.9096,64.5021 71.9146,64.5001 L71.9146,73.6461 L88.8386,68.4611 C90.7116,66.1791 91.9596,63.5291 91.8236,60.5621 C91.8096,60.2841 91.7946,60.0051 91.7776,59.7251 C91.7256,58.8881 91.6566,58.0501 91.5776,57.2131 C91.2626,53.8641 90.8056,50.5431 90.8066,47.4531 C90.8076,47.0301 90.8186,46.6121 90.8376,46.1971 C90.1976,46.6591 89.3296,46.8151 88.6086,46.5731 C87.9046,46.3371 87.3426,45.7221 87.2756,44.6501 C87.1596,42.7881 89.0666,41.6711 90.4386,42.2631 C92.2626,39.1241 95.9546,34.2811 93.2816,30.9481 C93.2106,30.9191 93.1426,30.8891 93.0706,30.8591 C92.9346,31.1701 92.7926,31.4741 92.6476,31.7761 C92.6026,31.8701 92.5556,31.9621 92.5096,32.0541 C92.4056,32.2641 92.3006,32.4731 92.1926,32.6781 C92.1396,32.7791 92.0856,32.8791 92.0326,32.9771 C91.9216,33.1811 91.8096,33.3831 91.6956,33.5821 C91.6466,33.6681 91.5986,33.7541 91.5496,33.8391 C91.4016,34.0911 91.2516,34.3411 91.0986,34.5861 C91.0826,34.6101 91.0686,34.6361 91.0526,34.6611 C90.8746,34.9451 90.6936,35.2241 90.5096,35.4981 C90.4906,35.5261 90.4716,35.5531 90.4526,35.5821 C90.2906,35.8211 90.1266,36.0561 89.9616,36.2891 C89.9256,36.3401 89.8886,36.3891 89.8526,36.4401 C89.6976,36.6561 89.5416,36.8671 89.3846,37.0751 C89.3526,37.1171 89.3216,37.1591 89.2896,37.2011 C89.1056,37.4411 88.9206,37.6781 88.7356,37.9101 C88.7346,37.9111 88.7336,37.9111 88.7336,37.9121 C87.5766,39.3521 86.4016,40.5951 85.3366,41.6181 C85.3366,41.6191 85.3356,41.6191 85.3356,41.6201 C85.2576,41.6941 85.1816,41.7651 85.1046,41.8381 C85.0436,41.8951 84.9826,41.9541 84.9226,42.0101 C84.8456,42.0821 84.7706,42.1511 84.6956,42.2201 C84.6376,42.2731 84.5796,42.3271 84.5226,42.3791 C84.4496,42.4451 84.3776,42.5101 84.3056,42.5751 C84.2486,42.6261 84.1926,42.6761 84.1376,42.7251 C84.0676,42.7871 83.9986,42.8461 83.9306,42.9061 C83.8756,42.9551 83.8216,43.0021 83.7676,43.0481 C83.7026,43.1041 83.6386,43.1601 83.5756,43.2141 C83.5206,43.2601 83.4686,43.3041 83.4156,43.3491 C83.3556,43.3991 83.2956,43.4501 83.2376,43.4991 C83.1846,43.5431 83.1346,43.5841 83.0826,43.6261 C82.9876,43.7051 82.8946,43.7811 82.8046,43.8521 C82.7506,43.8961 82.6956,43.9411 82.6436,43.9821 C82.5976,44.0191 82.5546,44.0531 82.5096,44.0891 C82.4626,44.1261 82.4156,44.1631 82.3706,44.1971 C82.3286,44.2301 82.2896,44.2601 82.2506,44.2911 C82.2076,44.3241 82.1656,44.3561 82.1256,44.3871 C82.0886,44.4151 82.0546,44.4411 82.0196,44.4681 C81.9806,44.4971 81.9436,44.5251 81.9076,44.5521 C81.8776,44.5741 81.8486,44.5951 81.8206,44.6161 C81.7846,44.6431 81.7506,44.6681 81.7176,44.6921 C81.6946,44.7091 81.6716,44.7261 81.6506,44.7411 C81.6196,44.7641 81.5926,44.7841 81.5656,44.8021 C81.5476,44.8151 81.5296,44.8291 81.5136,44.8411 C81.4856,44.8601 81.4636,44.8761 81.4416,44.8911 C81.3676,44.9431 81.3246,44.9721 81.3246,44.9721 C81.3256,44.9521 81.3266,44.9311 81.3266,44.9111 L81.3266,44.9081 C81.3346,44.5591 81.3496,44.2191 81.3696,43.8821 L81.3696,43.8801 C81.5606,40.6101 82.2846,37.8991 82.9886,35.9611 L82.9916,35.9521 C83.3696,34.9141 83.7406,34.0971 84.0206,33.5361 C83.9276,32.8771 83.9786,32.1031 84.1056,31.3111 C83.7766,31.2441 83.2896,31.1621 82.6796,31.1101 C78.4096,31.7691 77.8886,36.9431 77.2556,40.5621 C77.3926,40.5791 77.5326,40.6071 77.6736,40.6551 C79.2996,41.2051 79.4926,43.6491 79.4896,45.0661 C79.4836,48.3151 78.1776,51.6731 76.8336,54.5941 C76.9286,54.7291 76.9756,54.8981 76.9436,55.0771 C76.8636,55.5181 76.4086,55.7251 76.0126,55.6021 C75.9786,55.5981 75.9436,55.5871 75.9076,55.5661 C75.5986,55.3821 75.3536,55.0461 75.5536,54.6861 C75.7006,54.4251 76.0336,54.2761 76.3256,54.3001 C76.3496,54.3021 76.3716,54.3081 76.3956,54.3121 C77.8816,51.0931 80.1196,45.9351 78.5696,42.4121 C76.9266,38.6771 73.8526,43.8361 73.3356,45.7191 C72.5676,48.5191 72.7526,51.3031 73.8366,53.9761 C73.8856,53.9711 73.9346,53.9641 73.9836,53.9681 C74.3696,53.9991 74.6726,54.3511 74.6016,54.7451 C74.5216,55.1871 74.0666,55.3931 73.6706,55.2711 C73.6366,55.2671 73.6006,55.2561 73.5646,55.2341 C73.2556,55.0501 73.0106,54.7141 73.2116,54.3541 C73.2496,54.2851 73.3026,54.2251 73.3636,54.1731 C72.0656,50.9351 71.9976,47.4551 73.2966,44.1811 C73.8036,42.9031 75.1056,40.7951 76.7286,40.5711 C77.3376,37.1791 77.8926,32.6221 81.0776,31.0671 C79.9596,31.0991 78.6456,31.2701 77.2426,31.7151 C75.0496,32.4081 72.6416,33.7671 70.4256,36.3201 C65.4556,42.0461 58.0286,46.1401 49.9526,44.1701 C51.3486,45.5781 52.5856,47.1451 53.6296,48.8511 C54.9486,51.0071 56.6506,53.6041 58.5556,56.0731" id="Fill-17" fill="#FFFFFF"></path>
                        <path d="M93.0707,30.8592 L92.9937,30.8642 C92.9907,30.8692 92.9877,30.8732 92.9857,30.8772 L93.0707,30.8592 Z" id="Fill-19" fill="#FFFFFF"></path>
                        <path d="M73.8847,54.4852 C73.8697,54.4872 73.8577,54.4962 73.8427,54.5002 C73.8017,54.5362 73.7547,54.5652 73.7047,54.5752 C73.6897,54.5892 73.6697,54.6002 73.6597,54.6172 C73.6547,54.6252 73.6467,54.6182 73.6577,54.6402 C73.6917,54.7092 73.7647,54.7492 73.8267,54.7862 C73.9587,54.8492 74.1507,54.7112 74.0757,54.5652 C74.0347,54.4862 73.9547,54.4752 73.8847,54.4852" id="Fill-21" fill="#FFFFFF"></path>
                        <path d="M76.2275,54.8162 C76.1315,54.8302 76.0425,54.8822 76.0015,54.9492 C75.9975,54.9562 75.9895,54.9502 75.9995,54.9722 C76.0335,55.0412 76.1065,55.0812 76.1695,55.1182 C76.3015,55.1812 76.4925,55.0432 76.4175,54.8972 C76.3775,54.8182 76.2975,54.8072 76.2275,54.8162" id="Fill-23" fill="#FFFFFF"></path>
                        <path d="M93.2436,38.411 C93.6556,37.851 94.1286,37.316 94.6756,36.811 C96.9466,34.718 100.2716,34.49 102.7506,36.009 C102.3086,35.61 100.2376,33.94 94.0776,31.287 C95.3136,33.469 94.4846,36.031 93.2436,38.411" id="Fill-25" fill="#FFFFFF"></path>
                        <path d="M91.2495,42.9266 C91.4315,42.1146 91.6795,41.3306 92.0045,40.5796 C91.5925,41.2606 91.1905,41.9056 90.8465,42.5016 C90.9945,42.6156 91.1295,42.7586 91.2495,42.9266" id="Fill-27" fill="#FFFFFF"></path>
                        <path d="M74.8818,77.8231 C74.8818,77.8231 83.9718,74.3901 88.8388,68.4611 L71.9148,73.6461 L71.9148,74.7761 C71.9998,74.8421 72.0518,74.9441 72.0518,75.0891 C72.0518,75.2761 72.0068,75.5271 71.9148,75.7971 L71.9148,76.0551 L71.9008,76.0541 L71.9008,76.1931 C72.8868,76.6061 74.8818,77.8231 74.8818,77.8231" id="Fill-29" fill="#E8E8E8"></path>
                        <path d="M30.1713,24.7586 C29.8653,24.7796 29.4953,24.3826 29.0933,23.7206 C28.8713,23.9186 28.6953,24.0656 28.5813,24.1546 L28.6243,30.3316 C29.3873,31.6126 30.1173,32.9096 30.8173,34.2216 C33.1803,35.8396 36.2843,37.9386 37.1623,34.6386 C37.2773,34.2066 37.3563,33.6876 37.3883,33.0576 L37.1463,29.0716 C34.2943,28.6226 32.0953,26.6076 32.0953,26.6076 L30.1713,24.7586 Z" id="Fill-31" fill="#A1843D"></path>
                        <path d="M37.3559,8.7801 L34.1789,14.6021 C35.1969,14.9341 35.9329,15.8901 35.9329,17.0191 C35.9329,18.4251 34.7939,19.5631 33.3889,19.5631 C33.0879,19.5631 32.7999,19.5081 32.5319,19.4121 C31.3949,21.4891 29.9269,22.9751 29.0929,23.7201 C29.4949,24.3831 29.8659,24.7801 30.1709,24.7591 L32.0959,26.6071 C32.0959,26.6071 34.2939,28.6231 37.1469,29.0721 C38.5379,29.2921 40.0829,29.1401 41.6069,28.1971 C44.4929,26.4121 44.2279,21.7811 44.0609,20.2891 C41.5089,22.9751 43.1189,17.1071 43.1189,17.1071 C43.1189,17.1071 43.3749,17.1271 43.6999,17.2071 C43.3809,15.2441 42.7299,12.5151 41.4239,10.2591 L37.3559,8.7801 Z" id="Fill-33" fill="#A1843D"></path>
                        <path d="M106.4155,76.1854 L106.4155,76.0724 L106.4155,76.1854 Z" id="Fill-35" fill="#E8E8E8"></path>
                        <path d="M108.207,88.7362 C108.32,89.1322 108.436,89.5282 108.56,89.9222 C108.436,89.5282 108.32,89.1322 108.207,88.7362" id="Fill-37" fill="#E8E8E8"></path>
                        <path d="M107.2763,84.8416 C107.3423,85.1826 107.4123,85.5216 107.4853,85.8606 C107.4123,85.5216 107.3423,85.1826 107.2763,84.8416" id="Fill-39" fill="#E8E8E8"></path>
                        <path d="M106.8622,82.3475 C106.8882,82.5355 106.9162,82.7235 106.9452,82.9115 C106.9162,82.7235 106.8882,82.5355 106.8622,82.3475" id="Fill-41" fill="#E8E8E8"></path>
                        <path d="M106.7177,81.1971 C106.7357,81.3551 106.7537,81.5121 106.7727,81.6711 C106.7537,81.5131 106.7357,81.3551 106.7177,81.1971" id="Fill-43" fill="#E8E8E8"></path>
                        <path d="M107.0405,83.5282 C107.0815,83.7752 107.1255,84.0222 107.1705,84.2682 C107.1255,84.0222 107.0815,83.7752 107.0405,83.5282" id="Fill-45" fill="#E8E8E8"></path>
                        <path d="M107.5864,86.3036 C107.6464,86.5646 107.7074,86.8246 107.7714,87.0856 C107.7074,86.8246 107.6464,86.5646 107.5864,86.3036" id="Fill-47" fill="#E8E8E8"></path>
                        <path d="M106.4316,77.1151 C106.4336,77.1981 106.4356,77.2811 106.4386,77.3641 C106.4356,77.2811 106.4336,77.1981 106.4316,77.1151" id="Fill-49" fill="#E8E8E8"></path>
                        <path d="M107.8837,87.536 C107.9537,87.808 108.0267,88.08 108.1007,88.351 C108.0267,88.08 107.9537,87.808 107.8837,87.536" id="Fill-51" fill="#E8E8E8"></path>
                        <path d="M106.475,78.2664 C106.478,78.3304 106.482,78.3944 106.486,78.4584 C106.482,78.3944 106.478,78.3304 106.475,78.2664" id="Fill-53" fill="#E8E8E8"></path>
                        <path d="M108.0429,61.9461 C105.6809,76.2721 96.6869,82.0481 77.1409,82.7331 C77.1409,82.7331 76.9829,82.8291 76.7019,82.9901 C77.1479,83.5651 77.3739,84.0131 77.2589,84.1741 C76.8359,84.7621 76.7899,85.0571 75.8979,85.1561 C75.0069,85.2541 73.4639,87.4571 73.1959,87.4661 C72.4959,87.4871 71.7309,87.3861 70.9439,87.2071 L69.4929,109.8801 L70.1469,99.6661 C89.1669,93.9461 101.7169,79.3671 106.5079,72.9231 C106.5079,72.9231 106.5079,72.9241 106.5069,72.9251 C106.5379,72.4431 106.5749,71.9621 106.6209,71.4801 C106.7149,70.4691 106.8399,69.4601 107.0009,68.4531 L108.0429,61.9461 Z" id="Fill-55" fill="#EDEDED"></path>
                        <path d="M108.1122,61.5155 L108.1112,61.5165 C108.1022,61.5725 108.0932,61.6285 108.0852,61.6845 L108.1122,61.5155 Z" id="Fill-57" fill="#E8E8E8"></path>
                        <path d="M70.1469,99.6659 L69.4929,119.5469 L117.0549,119.5469 L111.6239,101.2159 C111.4169,100.2629 111.1939,99.3119 110.9599,98.3659 C110.8419,97.8929 110.7209,97.4209 110.5979,96.9479 C110.1039,95.0619 109.5629,93.1869 108.9929,91.3199 C108.8509,90.8529 108.7059,90.3879 108.5599,89.9219 C108.4369,89.5279 108.3199,89.1329 108.2069,88.7359 C108.1709,88.6079 108.1359,88.4789 108.1009,88.3519 C108.0259,88.0799 107.9539,87.8089 107.8839,87.5359 C107.8459,87.3869 107.8079,87.2359 107.7709,87.0859 C107.7069,86.8249 107.6459,86.5639 107.5859,86.3039 C107.5529,86.1559 107.5179,86.0089 107.4859,85.8599 C107.4119,85.5209 107.3429,85.1829 107.2759,84.8419 C107.2399,84.6509 107.2049,84.4599 107.1699,84.2689 C107.1259,84.0219 107.0819,83.7749 107.0409,83.5279 C107.0069,83.3229 106.9759,83.1179 106.9449,82.9119 C106.9169,82.7239 106.8879,82.5359 106.8619,82.3479 C106.8309,82.1219 106.8009,81.8959 106.7729,81.6709 C106.7529,81.5129 106.7349,81.3549 106.7179,81.1969 C106.6139,80.2869 106.5359,79.3739 106.4859,78.4589 C106.4819,78.3949 106.4779,78.3309 106.4749,78.2669 C106.4599,77.9659 106.4479,77.6649 106.4389,77.3639 C106.4359,77.2809 106.4339,77.1979 106.4319,77.1149 C106.4229,76.8059 106.4179,76.4949 106.4159,76.1859 L106.4159,76.0719 C106.4109,75.0229 106.4409,73.9739 106.5069,72.9249 C106.5079,72.9239 106.5079,72.9229 106.5079,72.9229 C101.7169,79.3669 89.1669,93.9459 70.1469,99.6659" id="Fill-59" fill="#FFFFFF"></path>
                        <path d="M90.4526,35.5819 C90.2906,35.8209 90.1266,36.0569 89.9616,36.2889 C90.1266,36.0569 90.2906,35.8209 90.4526,35.5819" id="Fill-61" fill="#76C4F5"></path>
                        <path d="M84.5229,42.3787 C84.4499,42.4447 84.3769,42.5107 84.3049,42.5747 C84.3769,42.5107 84.4489,42.4447 84.5229,42.3787" id="Fill-63" fill="#76C4F5"></path>
                        <path d="M92.5097,32.0545 C92.4057,32.2645 92.3007,32.4735 92.1927,32.6785 C92.3007,32.4735 92.4057,32.2645 92.5097,32.0545" id="Fill-65" fill="#76C4F5"></path>
                        <path d="M91.0527,34.661 C90.8747,34.945 90.6937,35.224 90.5097,35.498 C90.6937,35.224 90.8747,34.945 91.0527,34.661" id="Fill-67" fill="#76C4F5"></path>
                        <path d="M91.5493,33.8387 C91.4013,34.0907 91.2513,34.3407 91.0983,34.5857 C91.2513,34.3407 91.4013,34.0907 91.5493,33.8387" id="Fill-69" fill="#76C4F5"></path>
                        <path d="M92.0322,32.9774 C91.9222,33.1814 91.8102,33.3824 91.6962,33.5814 C91.8102,33.3824 91.9222,33.1814 92.0322,32.9774" id="Fill-71" fill="#76C4F5"></path>
                        <path d="M85.3354,41.62 C85.2574,41.694 85.1814,41.766 85.1054,41.838 C85.1814,41.766 85.2574,41.694 85.3354,41.62" id="Fill-73" fill="#76C4F5"></path>
                        <path d="M84.9228,42.0106 C84.8458,42.0816 84.7708,42.1516 84.6948,42.2206 C84.7708,42.1516 84.8458,42.0816 84.9228,42.0106" id="Fill-75" fill="#76C4F5"></path>
                        <path d="M81.3266,44.911 C81.3266,44.932 81.3256,44.952 81.3246,44.973 C81.3246,44.973 81.3676,44.943 81.4416,44.891 C81.4056,44.917 81.3746,44.938 81.3566,44.951 L81.3266,44.911 Z" id="Fill-77" fill="#76C4F5"></path>
                        <path d="M89.8525,36.4403 C89.6975,36.6553 89.5415,36.8673 89.3845,37.0753 C89.5415,36.8673 89.6975,36.6563 89.8525,36.4403" id="Fill-79" fill="#76C4F5"></path>
                        <path d="M82.644,43.9823 C82.597,44.0193 82.554,44.0533 82.509,44.0883 C82.554,44.0533 82.597,44.0193 82.644,43.9823" id="Fill-81" fill="#76C4F5"></path>
                        <path d="M81.7177,44.6922 C81.6957,44.7092 81.6717,44.7262 81.6507,44.7412 C81.6717,44.7262 81.6947,44.7092 81.7177,44.6922" id="Fill-83" fill="#76C4F5"></path>
                        <path d="M82.371,44.1971 C82.329,44.2301 82.29,44.2601 82.25,44.2911 C82.29,44.2601 82.329,44.2301 82.371,44.1971" id="Fill-85" fill="#76C4F5"></path>
                        <path d="M81.9072,44.5516 C81.8772,44.5736 81.8482,44.5966 81.8212,44.6156 C81.8482,44.5956 81.8772,44.5736 81.9072,44.5516" id="Fill-87" fill="#76C4F5"></path>
                        <path d="M93.0707,30.8592 C92.9347,31.1702 92.7927,31.4742 92.6477,31.7762 C92.7927,31.4742 92.9347,31.1702 93.0707,30.8592" id="Fill-89" fill="#76C4F5"></path>
                        <path d="M82.1254,44.3875 C82.0884,44.4145 82.0544,44.4415 82.0194,44.4675 C82.0544,44.4415 82.0884,44.4145 82.1254,44.3875" id="Fill-91" fill="#76C4F5"></path>
                        <path d="M83.0829,43.6258 C82.9869,43.7048 82.8949,43.7808 82.8049,43.8528 C82.8949,43.7808 82.9869,43.7048 83.0829,43.6258" id="Fill-93" fill="#76C4F5"></path>
                        <path d="M84.1371,42.7254 C84.0671,42.7874 83.9991,42.8474 83.9311,42.9064 C83.9991,42.8464 84.0671,42.7874 84.1371,42.7254" id="Fill-95" fill="#76C4F5"></path>
                        <path d="M83.7675,43.0477 C83.7035,43.1047 83.6385,43.1597 83.5755,43.2137 C83.6385,43.1597 83.7035,43.1047 83.7675,43.0477" id="Fill-97" fill="#76C4F5"></path>
                        <path d="M83.4155,43.3494 C83.3555,43.3994 83.2955,43.4504 83.2375,43.4984 C83.2955,43.4504 83.3555,43.3994 83.4155,43.3494" id="Fill-99" fill="#76C4F5"></path>
                        <path d="M89.2895,37.201 C89.1055,37.441 88.9205,37.679 88.7355,37.91 C88.9205,37.679 89.1055,37.441 89.2895,37.201" id="Fill-101" fill="#76C4F5"></path>
                        <path d="M84.0209,33.536 C83.7409,34.098 83.3699,34.914 82.9919,35.952 C83.3699,34.914 83.7409,34.098 84.0209,33.537 L84.0209,33.536 Z" id="Fill-103" fill="#76C4F5"></path>
                        <path d="M81.3266,44.908 C81.3346,44.559 81.3496,44.219 81.3696,43.882 C81.3496,44.219 81.3346,44.559 81.3266,44.908" id="Fill-105" fill="#76C4F5"></path>
                        <path d="M81.5654,44.8026 C81.5484,44.8156 81.5284,44.8286 81.5134,44.8406 C81.5294,44.8286 81.5474,44.8156 81.5654,44.8026" id="Fill-107" fill="#76C4F5"></path>
                        <path d="M87.0356,35.2996 L87.5826,36.1426 L88.7336,37.9116 C88.7336,37.9106 88.7346,37.9106 88.7356,37.9096 C88.9206,37.6786 89.1056,37.4416 89.2896,37.2006 C89.3216,37.1586 89.3526,37.1166 89.3846,37.0746 C89.5416,36.8666 89.6976,36.6546 89.8526,36.4406 C89.8896,36.3896 89.9256,36.3396 89.9616,36.2886 C90.1266,36.0566 90.2906,35.8206 90.4526,35.5816 C90.4716,35.5536 90.4906,35.5266 90.5096,35.4976 C90.6936,35.2246 90.8746,34.9456 91.0526,34.6606 C91.0686,34.6366 91.0826,34.6106 91.0986,34.5856 C91.2516,34.3406 91.4016,34.0906 91.5496,33.8386 C91.5986,33.7536 91.6466,33.6676 91.6956,33.5816 C91.8096,33.3826 91.9216,33.1816 92.0326,32.9776 C92.0856,32.8786 92.1396,32.7786 92.1926,32.6786 C92.3006,32.4736 92.4056,32.2646 92.5096,32.0546 C92.5556,31.9616 92.6026,31.8696 92.6476,31.7766 C92.7926,31.4746 92.9346,31.1696 93.0706,30.8596 L92.9856,30.8766 C92.5156,31.5856 90.3486,34.5946 87.0356,35.2996" id="Fill-109" fill="#FFFFFF"></path>
                        <path d="M84.0209,33.5369 C83.7409,34.0989 83.3699,34.9139 82.9919,35.9519 L82.9889,35.9609 L85.0459,35.2229 C84.4389,34.9219 84.1299,34.3099 84.0209,33.5369" id="Fill-111" fill="#FFFFFF"></path>
                        <path d="M64.4692,85.2293 C64.3342,85.3803 64.4562,85.6233 64.6572,85.5993 C65.1002,85.5493 65.5332,85.4433 65.9332,85.3123 C65.5632,85.1283 65.2152,84.9503 64.8942,84.7793 C64.7292,84.9453 64.5862,85.0993 64.4692,85.2293" id="Fill-113" fill="#FFCE56"></path>
                        <path d="M66.0151,86.0555 C65.8411,86.2755 65.9901,86.6065 66.2701,86.6155 C66.9351,86.6345 67.6561,86.5545 68.3991,86.4055 C67.7211,86.1425 67.0611,85.8525 66.4461,85.5605 C66.2771,85.7395 66.1311,85.9095 66.0151,86.0555" id="Fill-115" fill="#FFCE56"></path>
                        <path d="M69.1044,76.5946 C69.3814,76.4376 69.6714,76.2306 69.9354,75.9966 L68.1954,75.9466 C68.4354,76.2176 68.7364,76.4496 69.1044,76.5946" id="Fill-117" fill="#FFB98A"></path>
                        <path d="M63.4404,84.3045 C63.5844,84.3205 63.7664,84.3035 63.9664,84.2695 C63.7524,84.1475 63.5614,84.0365 63.4004,83.9425 C63.2564,84.1455 63.2414,84.2835 63.4404,84.3045" id="Fill-119" fill="#FFB98A"></path>
                        <path d="M91.7778,59.7254 C91.7258,58.8884 91.6558,58.0494 91.5778,57.2124 C91.6558,58.0494 91.7258,58.8884 91.7778,59.7254" id="Fill-121" fill="#FFB98A"></path>
                        <path d="M91.5776,57.2127 C91.2626,53.8637 90.8066,50.5427 90.8066,47.4527 C90.8066,50.5427 91.2626,53.8637 91.5776,57.2127" id="Fill-123" fill="#FFB98A"></path>
                        <path d="M74.8818,77.8231 C74.8818,77.8231 72.8868,76.6061 71.9008,76.1931 C71.8568,76.1751 71.8138,76.1571 71.7738,76.1411 C71.5088,76.7001 71.0498,77.2651 70.3638,77.4951 C69.1918,77.8881 69.4728,78.4281 70.5978,78.6251 C72.7318,78.9971 75.5088,81.4531 76.7018,82.9901 C76.9828,82.8291 77.1408,82.7331 77.1408,82.7331 C76.8228,78.8491 74.8818,77.8231 74.8818,77.8231" id="Fill-125" fill="#FFCE56"></path>
                        <path d="M94.6757,36.8114 C94.1287,37.3164 93.6557,37.8514 93.2437,38.4114 C92.8537,39.1584 92.4247,39.8864 92.0047,40.5804 C91.6797,41.3314 91.4307,42.1144 91.2497,42.9264 C91.3857,43.1174 91.5017,43.3404 91.5917,43.6034 C91.9887,44.7764 91.5567,45.6794 90.8377,46.1974 C90.8187,46.6124 90.8077,47.0304 90.8067,47.4534 C90.8057,50.5424 91.2627,53.8644 91.5777,57.2124 C91.6557,58.0494 91.7257,58.8884 91.7777,59.7254 C91.7947,60.0044 91.8097,60.2844 91.8227,60.5624 C91.9597,63.5294 90.7117,66.1794 88.8387,68.4604 C83.9717,74.3904 74.8817,77.8234 74.8817,77.8234 C74.8817,77.8234 76.8227,78.8494 77.1407,82.7334 C96.6867,82.0474 105.6807,76.2724 108.0427,61.9464 C108.0577,61.8604 108.0717,61.7724 108.0847,61.6844 C108.0937,61.6284 108.1017,61.5724 108.1107,61.5164 C108.4137,59.5494 108.5957,57.4274 108.6657,55.1364 C108.9507,45.7844 106.8027,40.5164 104.5077,37.5704 C104.0067,36.9254 103.4067,36.4104 102.7507,36.0084 C100.2717,34.4904 96.9467,34.7174 94.6757,36.8114" id="Fill-127" fill="#FFFFFF"></path>
                        <path d="M73.7045,54.575 C73.7545,54.565 73.8015,54.536 73.8425,54.5 C73.7875,54.514 73.7415,54.54 73.7045,54.575" id="Fill-129" fill="#2E3865"></path>
                        <path d="M76.7084,40.6864 C76.7154,40.6484 76.7224,40.6094 76.7294,40.5714 C75.1054,40.7944 73.8034,42.9034 73.2964,44.1814 C71.9984,47.4554 72.0654,50.9354 73.3634,54.1724 C73.4944,54.0594 73.6654,53.9944 73.8364,53.9764 C72.7524,51.3034 72.5674,48.5194 73.3354,45.7194 C73.8524,43.8354 76.9264,38.6764 78.5694,42.4124 C80.1204,45.9354 77.8814,51.0924 76.3954,54.3124 C76.5764,54.3464 76.7324,54.4504 76.8334,54.5944 C78.1774,51.6724 79.4834,48.3154 79.4894339,45.0664 C79.4924,43.6494 79.2994,41.2054 77.6734,40.6554 C77.5324,40.6074 77.3934,40.5794 77.2554,40.5624 C77.2394,40.6504 77.2244,40.7384 77.2084,40.8244 C77.1494,41.1534 76.6494,41.0124 76.7084,40.6864" id="Fill-131" fill="#2E3865"></path>
                        <path d="M90.4389,42.2635 C90.5819,42.3255 90.7189,42.4025 90.8469,42.5015 C91.1909,41.9065 91.5919,41.2605 92.0049,40.5795 C92.4249,39.8865 92.8539,39.1585 93.2439,38.4105 C94.4849,36.0315 95.3139,33.4685 94.0779,31.2865 C93.9389,31.0405 93.7719,30.7995 93.5779,30.5635 C93.3839,30.3285 93.0509,30.6645 93.2439,30.8985 C93.2569,30.9145 93.2679,30.9315 93.2809,30.9485 C95.9549,34.2815 92.2629,39.1235 90.4389,42.2635" id="Fill-133" fill="#1A267C"></path>
                        <path d="M83.4702,30.5193086 C82.5372,30.5404 81.7502,30.7384 81.0772,31.0674 C77.8922,32.6224 77.3372,37.1794 76.7292,40.5714 C76.7222,40.6094 76.7152,40.6484 76.7082,40.6864 C76.6492,41.0124 77.1492,41.1534 77.2092,40.8244 C77.2242,40.7384 77.2402,40.6504 77.2552,40.5624 C77.8882,36.9434 78.4092,31.7694 82.6792,31.1104 C82.9302,31.0714 83.1922,31.0444 83.4702,31.0394 C83.8032,31.0314 83.8042,30.5114 83.4702,30.5193086" id="Fill-135" fill="#2E3865"></path>
                        <path d="M74.0756,54.5653 C74.1506,54.7113 73.9586,54.8493 73.8266,54.7863 C73.7646,54.7493 73.6916,54.7093 73.6576,54.6403 C73.6466,54.6183 73.6546,54.6253 73.6596,54.6173 C73.6696,54.6003 73.6896,54.5883 73.7046,54.5753 C73.7416,54.5403 73.7866,54.5143 73.8426,54.5003 C73.8576,54.4963 73.8696,54.4873 73.8846,54.4853 C73.9546,54.4753 74.0346,54.4863 74.0756,54.5653 M73.2116,54.3543 C73.0106,54.7133 73.2556,55.0493 73.5646,55.2343 C73.6006,55.2553 73.6366,55.2673 73.6706,55.2713 C74.0666,55.3933 74.5216,55.1873 74.6016,54.7453 C74.6726,54.3513 74.3696,53.9993 73.9836,53.9673 C73.9346,53.9633 73.8856,53.9713 73.8366,53.9763 C73.6656,53.9943 73.4946,54.0593 73.3636,54.1723 C73.3026,54.2253 73.2496,54.2853 73.2116,54.3543" id="Fill-137" fill="#2E3865"></path>
                        <path d="M76.1694,55.118 C76.1074,55.081 76.0334,55.041 76.0004,54.972 C75.9894,54.95 75.9974,54.956 76.0024,54.949 C76.0424,54.883 76.1314,54.83 76.2274,54.816 C76.2974,54.807 76.3774,54.818 76.4184,54.897 C76.4924,55.043 76.3014,55.181 76.1694,55.118 M76.3954,54.312 C76.3724,54.308 76.3494,54.302 76.3254,54.3 C76.0334,54.276 75.7004,54.425 75.5534,54.686 C75.3534,55.046 75.5984,55.382 75.9074,55.566 C75.9434,55.587 75.9794,55.598 76.0124,55.602 C76.4084,55.725 76.8634,55.518 76.9434,55.077 C76.9764,54.898 76.9284,54.729 76.8344,54.595 C76.7324,54.45 76.5764,54.347 76.3954,54.312" id="Fill-139" fill="#2E3865"></path>
                        <path d="M89.1913,45.159 C88.9443,45.076 88.7473,44.86 88.7233,44.484 C88.6683,43.597 89.9243,43.189 90.2383,44.117 C90.5023,44.895 89.7293,45.34 89.1913,45.159 M91.5913,43.603 C91.5023,43.341 91.3853,43.117 91.2493,42.927 C91.1293,42.759 90.9943,42.616 90.8463,42.502 C90.7183,42.402 90.5813,42.325 90.4393,42.263 C89.0663,41.671 87.1593,42.788 87.2753,44.65 C87.3423,45.722 87.9043,46.337 88.6083,46.573 C89.3303,46.815 90.1973,46.659 90.8373,46.197 C91.5563,45.68 91.9883,44.776 91.5913,43.603" id="Fill-141" fill="#2E3865"></path>
                        <path d="M88.7236,44.4842 C88.7466,44.8602 88.9446,45.0762 89.1916,45.1592 C89.7286,45.3392 90.5016,44.8952 90.2386,44.1172 C89.9246,43.1892 88.6686,43.5962 88.7236,44.4842" id="Fill-143" fill="#FFFFFF"></path>
                        <path d="M85.6005,26.3319 C85.6005,26.3319 84.4935,28.9029 84.1055,31.3109 C83.9785,32.1029 83.9275,32.8769 84.0205,33.5359 L84.0205,33.5369 C84.1305,34.3109 84.4395,34.9219 85.0465,35.2229 C85.0685,35.2329 85.0915,35.2429 85.1145,35.2529 C85.4605,35.4059 85.8925,35.4689 86.4405,35.4019 C86.6435,35.3779 86.8405,35.3419 87.0355,35.2999 C90.3485,34.5949 92.5155,31.5859 92.9855,30.8769 C92.9885,30.8729 92.9905,30.8689 92.9935,30.8639 C93.0515,30.7759 93.0825,30.7259 93.0825,30.7259 L93.7785,24.5189 C93.7595,24.5039 93.7405,24.4909 93.7215,24.4759 C92.3085,23.3369 91.8125,21.3059 91.7605,19.1549 C93.0805,19.2559 94.2635,18.3079 94.4355,16.9789 C94.6135,15.6049 93.6435,14.3479 92.2695,14.1699 C92.2615,14.1689 92.2535,14.1699 92.2465,14.1689 C92.4725,12.9969 92.7265,12.0219 92.8915,11.4439 C91.6235,11.5049 89.7725,11.3739 88.0455,10.4329 C87.9615,10.3879 87.8785,10.3399 87.7955,10.2899 C86.5055,9.5209 85.3065,8.2779 84.4985,6.2919 C84.3275,5.8689 84.2685,5.4959 84.2925,5.1639 C83.2895,5.7789 82.3515,6.7289 81.5325,8.0999 C81.1165,8.7939 80.7315,9.5939 80.3845,10.5159 C80.0505,11.4029 79.5885,12.7119 79.1765,14.1829 C79.5455,14.0229 79.8335,13.9329 79.8335,13.9329 C79.8335,13.9329 79.9245,17.0189 78.5955,16.6029 C78.2395,18.4029 78.0715,20.2389 78.3605,21.7249 C78.6835,23.3809 79.2305,24.5259 79.9545,25.2889 C81.3155,26.7249 83.3025,26.7989 85.6005,26.3319" id="Fill-145" fill="#FFCE56"></path>
                        <path d="M41.7558,103.9969 C41.7558,103.9969 41.8008,98.9459 41.8438,91.9989 C41.8228,95.4159 41.8008,98.3749 41.7848,100.4979 L31.2408,88.4709 L30.8458,88.3389 L24.7618,82.7329 C18.3988,78.0779 23.1308,56.9829 24.3488,47.7259 L37.7198,52.0849 C37.7198,52.0849 39.2718,63.1289 40.2898,67.1649 C40.8138,69.2409 40.4718,73.0009 41.8318,74.8929 C41.2788,60.6759 37.5138,46.7689 30.8178,34.2219 C30.1168,32.9099 29.3878,31.6119 28.6238,30.3319 L26.7758,34.3859 L26.7788,34.3899 C26.5708,34.6549 26.3708,34.9269 26.1698,35.1959 C26.6498,35.1929 27.1118,35.3479 27.2518,35.9059 C27.5268,37.0049 25.8958,36.6909 25.3948,36.5709 C27.0018,40.1679 27.0878,42.7399 25.8508,40.9609 C26.3438,42.8459 26.1058,43.7069 25.2058,42.3679 C25.5848,43.9419 25.4038,44.6929 24.7108,43.8299 C25.1018,45.5619 24.7718,46.1999 23.7868,44.5659 C23.5508,44.1759 23.3738,43.7919 23.2338,43.4179 L23.2308,43.4269 C23.2308,43.4269 23.2138,43.3719 23.1828,43.2779 C23.1358,43.1429 23.0928,43.0089 23.0558,42.8759 C22.9038,42.3879 22.6798,41.6539 22.5048,41.0089 C20.3528,45.1059 18.8608,49.5339 18.0978,54.1329 C17.9698,54.9039 17.8558,55.6799 17.7698,56.4609 L12.4968,103.9969 L14.2858,103.9969 L41.7558,103.9969 Z" id="Fill-147" fill="#DC0E7A"></path>
                        <path d="M24.8754,35.4793 C24.8754,35.4793 23.3734,36.3603 23.4744,37.2463 C23.5754,38.1313 22.2644,39.1643 22.2404,39.7313 C22.2324,39.9273 22.3494,40.4333 22.5044,41.0083 C22.6794,41.6543 22.9034,42.3873 23.0564,42.8753 C23.0934,43.0083 23.1354,43.1423 23.1834,43.2783 C23.2134,43.3723 23.2304,43.4263 23.2304,43.4263 L23.2334,43.4173 C23.3744,43.7923 23.5514,44.1753 23.7864,44.5663 C24.7714,46.2003 25.1024,45.5623 24.7104,43.8303 C25.4034,44.6933 25.5844,43.9423 25.2064,42.3683 C26.1054,43.7073 26.3444,42.8453 25.8504,40.9603 C27.0874,42.7403 27.0014,40.1673 25.3954,36.5713 C25.8954,36.6913 27.5264,37.0043 27.2514,35.9063 C27.1124,35.3473 26.6494,35.1933 26.1694,35.1962572 C25.5384,35.2013 24.8754,35.4793 24.8754,35.4793" id="Fill-149" fill="#FFCE56"></path>
                        <path d="M41.7846,100.4979 C41.8016,98.3749 41.8236,95.4159 41.8446,91.9989 L31.2416,88.4709 L41.7846,100.4979 Z" id="Fill-151" fill="#A00556"></path>
                        <path d="M58.7065,78.2616 C58.5545,78.2486 58.4005,78.2356 58.2455,78.2216 C58.4005,78.2356 58.5545,78.2486 58.7065,78.2616" id="Fill-153" fill="#FFC9A3"></path>
                        <path d="M60.1923,78.3807 C60.0603,78.3707 59.9253,78.3597 59.7893,78.3497 C59.9253,78.3597 60.0603,78.3707 60.1923,78.3807" id="Fill-155" fill="#FFC9A3"></path>
                        <path d="M59.3837,78.3172 C59.2617,78.3072 59.1387,78.2972 59.0137,78.2872 C59.1387,78.2972 59.2607,78.3072 59.3837,78.3172" id="Fill-157" fill="#FFC9A3"></path>
                        <path d="M60.749,78.4217 C60.681,78.4167 60.612,78.4117 60.543,78.4067 C60.612,78.4117 60.681,78.4167 60.749,78.4217" id="Fill-159" fill="#FFC9A3"></path>
                        <path d="M56.3745,78.0477 C56.1275,78.0237 55.8775,77.9977 55.6255,77.9727 C55.8775,77.9977 56.1275,78.0237 56.3745,78.0477" id="Fill-161" fill="#FFC9A3"></path>
                        <path d="M57.1245,78.12 C56.9415,78.103 56.7575,78.086 56.5715,78.067 C56.7575,78.086 56.9415,78.103 57.1245,78.12" id="Fill-163" fill="#FFC9A3"></path>
                        <path d="M58.0346,78.2039 C57.8136,78.1839 57.5886,78.1639 57.3616,78.1419 C57.5886,78.1639 57.8136,78.1839 58.0346,78.2039" id="Fill-165" fill="#FFC9A3"></path>
                        <path d="M51.0092,77.4119 C50.7832,77.3799 50.5562,77.3479 50.3302,77.3139 C50.5562,77.3479 50.7822,77.3799 51.0092,77.4119" id="Fill-167" fill="#FFC9A3"></path>
                        <path d="M54.8364,77.8875 C55.0464,77.9105 55.2564,77.9335 55.4644,77.9545 C55.3464,77.9425 55.2264,77.9295 55.1064,77.9165 C55.0164,77.9075 54.9264,77.8975 54.8364,77.8875" id="Fill-169" fill="#FFC9A3"></path>
                        <path d="M51.996,77.5467 C51.724,77.5107 51.451,77.4737 51.178,77.4357 C51.451,77.4737 51.724,77.5107 51.996,77.5467" id="Fill-171" fill="#FFC9A3"></path>
                        <path d="M54.6196,77.8641 C54.0936,77.8051 53.5596,77.7431 53.0216,77.6771 C53.5596,77.7431 54.0936,77.8051 54.6196,77.8641" id="Fill-173" fill="#FFC9A3"></path>
                        <path d="M52.8222,77.6522 C52.5902,77.6232 52.3562,77.5932 52.1232,77.5632 C52.3572,77.5932 52.5902,77.6232 52.8222,77.6522" id="Fill-175" fill="#FFC9A3"></path>
                        <path d="M44.0302,76.12 C43.7912,76.06 43.5542,76.001 43.3222,75.939 C43.5542,76.001 43.7912,76.06 44.0302,76.12" id="Fill-177" fill="#FFC9A3"></path>
                        <path d="M45.7221,76.5047 C45.4711,76.4517 45.2221,76.3977 44.9761,76.3427 C45.2221,76.3977 45.4711,76.4517 45.7221,76.5047" id="Fill-179" fill="#FFC9A3"></path>
                        <path d="M45.8994,76.5409 C46.1054,76.5839 46.3134,76.6259 46.5234,76.6669 C46.3134,76.6259 46.1054,76.5839 45.8994,76.5409" id="Fill-181" fill="#FFC9A3"></path>
                        <path d="M44.8271,76.3084 C44.6251,76.2624 44.4261,76.2154 44.2291,76.1674 C44.4261,76.2154 44.6251,76.2624 44.8271,76.3084" id="Fill-183" fill="#FFC9A3"></path>
                        <path d="M50.1445,77.2869 C49.8705,77.2459 49.5955,77.2039 49.3225,77.1599 C49.5955,77.2039 49.8705,77.2459 50.1445,77.2869" id="Fill-185" fill="#FFC9A3"></path>
                        <path d="M49.2499,77.1483 C49.0029,77.1093 48.7559,77.0693 48.5109,77.0273 C48.7559,77.0693 49.0029,77.1093 49.2499,77.1483" id="Fill-187" fill="#FFC9A3"></path>
                        <path d="M47.5019,76.8524 C47.2379,76.8034 46.9759,76.7544 46.7149,76.7044 C46.9759,76.7544 47.2379,76.8034 47.5019,76.8524" id="Fill-189" fill="#FFC9A3"></path>
                        <path d="M48.31,76.994 C48.065,76.952 47.82,76.909 47.578,76.865 C47.82,76.909 48.065,76.952 48.31,76.994" id="Fill-191" fill="#FFC9A3"></path>
                        <path d="M71.9145,74.7762 L71.9145,75.7972 C72.0065,75.5272 72.0525,75.2762 72.0525,75.0882 C72.0525,74.9442 71.9995,74.8412 71.9145,74.7762" id="Fill-193" fill="#FFC9A3"></path>
                        <path d="M73.1957,87.4657 C73.4637,87.4567 75.0077,85.2537 75.8987,85.1557 C76.7897,85.0577 76.8367,84.7627 77.2587,84.1737 C77.3737,84.0137 77.1477,83.5657 76.7017,82.9897 C75.5087,81.4527 72.7317,78.9967 70.5977,78.6247 C69.4727,78.4287 69.1917,77.8887 70.3637,77.4947 C71.0497,77.2657 71.5087,76.6997 71.7737,76.1417 C71.7887,76.1117 71.8027,76.0817 71.8157,76.0527 L69.9357,75.9967 C69.6717,76.2307 69.3817,76.4377 69.1047,76.5947 C68.7697,76.7857 68.4587,76.9057 68.2527,76.9057 C67.7377,76.9057 64.9697,78.6737 64.9697,78.6737 C64.9697,78.6737 63.8167,78.6277 61.9857,78.5077 L61.9857,83.7677 C62.2577,83.7067 62.5327,83.6467 62.8117,83.5837 C62.8117,83.5837 63.0277,83.7207 63.4007,83.9427 C63.5607,84.0367 63.7517,84.1477 63.9667,84.2697 C64.2377,84.4237 64.5497,84.5957 64.8937,84.7787 C65.2157,84.9497 65.5637,85.1287 65.9327,85.3127 C66.1007,85.3947 66.2707,85.4777 66.4457,85.5607 C67.0607,85.8527 67.7207,86.1427 68.3987,86.4047 C69.2377,86.7317 70.1037,87.0147 70.9447,87.2067 C71.7317,87.3867 72.4957,87.4867 73.1957,87.4657" id="Fill-195" fill="#A1843D"></path>
                        <path d="M61.9853,78.5077 L61.9853,78.5077 C61.6023,78.4827 61.1873,78.4537 60.7493,78.4217 C60.6813,78.4167 60.6123,78.4117 60.5433,78.4067 C60.4273,78.3987 60.3113,78.3897 60.1923,78.3807 C60.0603,78.3707 59.9253,78.3607 59.7893,78.3497 C59.6563,78.3397 59.5203,78.3287 59.3833,78.3177 C59.2613,78.3077 59.1383,78.2977 59.0143,78.2867 C58.9123,78.2787 58.8093,78.2707 58.7063,78.2617 C58.5543,78.2487 58.4003,78.2357 58.2453,78.2217 C58.1743,78.2157 58.1063,78.2097 58.0343,78.2037 C57.8133,78.1847 57.5883,78.1637 57.3613,78.1427 C57.2823,78.1357 57.2033,78.1277 57.1243,78.1197 C56.9423,78.1037 56.7573,78.0857 56.5713,78.0677 C56.5063,78.0607 56.4403,78.0547 56.3743,78.0477 C56.1273,78.0237 55.8783,77.9977 55.6263,77.9727 C55.5723,77.9667 55.5183,77.9607 55.4643,77.9547 C55.2563,77.9337 55.0473,77.9107 54.8363,77.8877 L54.6193,77.8637 C54.0933,77.8057 53.5603,77.7427 53.0223,77.6777 C52.9553,77.6687 52.8883,77.6607 52.8223,77.6527 C52.5893,77.6227 52.3573,77.5937 52.1233,77.5637 C52.0803,77.5577 52.0383,77.5527 51.9963,77.5467 C51.7243,77.5107 51.4513,77.4737 51.1773,77.4357 L51.0093,77.4117 C50.7823,77.3797 50.5563,77.3477 50.3303,77.3147 C50.3063,77.3107 50.2823,77.3077 50.2583,77.3037 C50.2203,77.2977 50.1823,77.2917 50.1443,77.2867 C49.8703,77.2457 49.5953,77.2037 49.3223,77.1597 C49.2983,77.1557 49.2743,77.1527 49.2503,77.1487 C49.0033,77.1097 48.7563,77.0697 48.5103,77.0277 C48.4433,77.0167 48.3773,77.0047 48.3103,76.9937 C48.0653,76.9517 47.8203,76.9087 47.5773,76.8647 C47.5523,76.8617 47.5273,76.8567 47.5023,76.8527 C47.2373,76.8037 46.9753,76.7547 46.7153,76.7037 C46.6513,76.6927 46.5873,76.6797 46.5233,76.6667 C46.3133,76.6257 46.1053,76.5837 45.8993,76.5407 C45.8403,76.5287 45.7803,76.5167 45.7223,76.5047 C45.4703,76.4517 45.2223,76.3977 44.9763,76.3427 C44.9253,76.3307 44.8773,76.3197 44.8273,76.3087 C44.6253,76.2627 44.4263,76.2157 44.2293,76.1677 C44.1623,76.1527 44.0963,76.1357 44.0303,76.1197 C43.7913,76.0607 43.5543,76.0007 43.3223,75.9397 L43.3203,75.9397 C42.6723,75.7667 42.1923,75.3947 41.8313,74.8927 C40.4713,73.0007 40.8133,69.2407 40.2893,67.1647 C39.2723,63.1287 37.7203,52.0847 37.7203,52.0847 L24.3493,47.7267 C23.1313,56.9837 18.3993,78.0777 24.7613,82.7337 L30.8453,88.3387 L31.2413,88.4707 L41.8443,91.9987 L47.8713,94.0037 L49.3653,94.5007 L56.8543,96.9927 L61.9853,98.6997 L61.9853,83.7677 L61.9853,78.5077 Z" id="Fill-197" fill="#DC0E7A"></path>
                        <path d="M50.4877,60.7459 L50.2787,71.2609 L50.4207,74.8469 L50.4437,75.4239 L54.8897,75.5549 L68.1957,75.9459 L69.9357,75.9969 L71.8157,76.0529 L71.9007,76.0549 L71.9147,76.0559 L71.9147,75.7969 L71.9147,74.7759 L71.9147,73.6459 L71.9147,64.4999 C71.9097,64.5019 71.9047,64.5029 71.9007,64.5049 C67.7127,66.1209 62.6627,61.3979 58.5557,56.0729 C56.6507,53.6039 54.9477,51.0069 53.6297,48.8509 C52.5857,47.1449 51.3487,45.5779 49.9527,44.1699 C48.3827,42.5869 46.6097,41.2049 44.6717,40.0659 C43.5087,39.3829 42.2207,38.6519 40.8437,37.9119 L40.8467,37.9179 L48.0787,51.0049 C49.7237,53.9829 50.5547,57.3439 50.4877,60.7459" id="Fill-199" fill="#DC0E7A"></path>
                        <path d="M28.4389,24.2664 C28.4389,24.2664 28.4909,24.2274 28.5819,24.1554 C28.6949,24.0654 28.8719,23.9184 29.0929,23.7204 C29.9269,22.9754 31.3949,21.4894 32.5319,19.4124 C31.5499,19.0594 30.8459,18.1224 30.8459,17.0194 C30.8459,15.6154 31.9839,14.4764 33.3889,14.4764 C33.6649,14.4764 33.9299,14.5214 34.1789,14.6024 L37.3559,8.7804 L41.4239,10.2584 C44.4509,8.3674 47.3309,-0.6526 35.8099,2.8334 C35.8099,2.8334 31.3209,-3.9276 24.6739,4.8324 C23.7349,6.0704 22.7529,7.6174 21.7349,9.5374 C13.5059,25.0484 28.4389,24.2664 28.4389,24.2664" id="Fill-201" fill="#2E3865"></path>
                        <path d="M35.933,17.0194 C35.933,15.8904 35.197,14.9344 34.179,14.6024 C33.93,14.5214 33.665,14.4764 33.389,14.4764 C31.984,14.4764 30.846,15.6154 30.846,17.0194 C30.846,18.1234 31.55,19.0594 32.532,19.4124 C32.8,19.5074 33.088,19.5634 33.389,19.5634 C34.794,19.5634 35.933,18.4244 35.933,17.0194" id="Fill-203" fill="#A1843D"></path>
                        <path d="M44.0605,20.2889 C44.0815,20.2669 44.1005,20.2489 44.1225,20.2259 C46.0665,18.1269 44.6075,17.4299 43.7005,17.2069 C43.3745,17.1269 43.1195,17.1069 43.1195,17.1069 C43.1195,17.1069 41.5085,22.9759 44.0605,20.2889" id="Fill-205" fill="#A1843D"></path>
                        <path d="M79.8334,13.9325 C79.8334,13.9325 79.5454,14.0235 79.1764,14.1825 C78.2604,14.5785 76.8484,15.4055 78.1374,16.3555 C78.3064,16.4795 78.4584,16.5595 78.5954,16.6025 C79.9244,17.0195 79.8334,13.9325 79.8334,13.9325" id="Fill-207" fill="#FFCE56"></path>
                    </g>
                </g>
            </g>
        </g>
    </g>
</svg>