<?xml version="1.0" encoding="UTF-8"?>
<svg width="128px" height="127px" viewBox="0 0 128 127" version="1.1" xmlns="http://www.w3.org/2000/svg" xmlns:xlink="http://www.w3.org/1999/xlink">
    <!-- Generator: sketchtool 60.1 (101010) - https://sketch.com -->
    <title>7AFF02C7-A7D4-4718-A405-DD7499B0EA44</title>
    <desc>Created with sketchtool.</desc>
    <g id="Page-1" stroke="none" stroke-width="1" fill="none" fill-rule="evenodd">
        <g id="Desktop-HD" transform="translate(-845.000000, -165.000000)">
            <g id="Group-19" transform="translate(735.000000, 71.000000)">
                <g id="Group-21">
                    <g id="Group-2">
                        <g id="Group-17" transform="translate(110.000000, 94.000000)">
                            <g id="Group-5-Copy" transform="translate(64.100000, 63.500000) scale(-1, 1) translate(-64.100000, -63.500000) translate(0.600000, 0.000000)">
                                <path d="M63.36,21.12 C40.06848,21.12 21.12,40.06848 21.12,63.36 C21.12,86.65152 40.06848,105.6 63.36,105.6 C86.65152,105.6 105.6,86.65152 105.6,63.36 C105.6,40.06848 86.65152,21.12 63.36,21.12 M63.36,117.12 C33.71712,117.12 9.6,93.00288 9.6,63.36 C9.6,33.71712 33.71712,9.6 63.36,9.6 C93.00288,9.6 117.12,33.71712 117.12,63.36 C117.12,93.00288 93.00288,117.12 63.36,117.12" id="Fill-1" fill="#A2AFCC"></path>
                                <path d="M63.36,126.72 C28.42368,126.72 0,98.29632 0,63.36 C0,56.67648 1.03872,50.08704 3.08544,43.77984 L23.1744,50.30016 C21.8112,54.4992 21.12,58.89408 21.12,63.36 C21.12,86.65152 40.06848,105.6 63.36,105.6 C86.65152,105.6 105.6,86.65152 105.6,63.36 C105.6,40.06848 86.65152,21.12 63.36,21.12 L63.36,0 C98.29632,0 126.72,28.42368 126.72,63.36 C126.72,98.29632 98.29632,126.72 63.36,126.72" id="Fill-3" fill="#FFCE56"></path>
                            </g>
                            <path d="M50.8519043,60.7255859 C51.6489746,60.7255859 52.3858887,60.6259521 53.0626465,60.4266846 C53.7394043,60.227417 54.3240479,59.9285156 54.8165771,59.5299805 C55.3091064,59.1314453 55.6944824,58.638916 55.9727051,58.0523926 C56.2509277,57.4658691 56.3900391,56.7815918 56.3900391,55.9995605 C56.3900391,55.0896973 56.1569336,54.2982666 55.6907227,53.6252686 C55.2245117,52.9522705 54.5928711,52.4240234 53.7958008,52.0405273 C54.4951172,51.6720703 55.044043,51.179541 55.4425781,50.5629395 C55.8411133,49.9463379 56.0403809,49.239502 56.0403809,48.4424316 C56.0403809,47.697998 55.9125488,47.0419189 55.6568848,46.4741943 C55.4012207,45.9064697 55.0421631,45.4270996 54.5797119,45.036084 C54.1172607,44.6450684 53.568335,44.3499268 52.9329346,44.1506592 C52.2975342,43.9513916 51.6000977,43.8517578 50.840625,43.8517578 C50.0811523,43.8517578 49.3837158,43.9513916 48.7483154,44.1506592 C48.112915,44.3499268 47.5658691,44.6450684 47.1071777,45.036084 C46.6484863,45.4270996 46.2894287,45.9064697 46.0300049,46.4741943 C45.7705811,47.0419189 45.6408691,47.697998 45.6408691,48.4424316 C45.6408691,49.239502 45.8382568,49.9463379 46.2330322,50.5629395 C46.6278076,51.179541 47.1748535,51.6720703 47.8741699,52.0405273 C47.0846191,52.4165039 46.4567383,52.9428711 45.9905273,53.6196289 C45.5243164,54.2963867 45.2912109,55.0896973 45.2912109,55.9995605 C45.2912109,56.7815918 45.4322021,57.4658691 45.7141846,58.0523926 C45.996167,58.638916 46.3853027,59.1314453 46.8815918,59.5299805 C47.3778809,59.9285156 47.9662842,60.227417 48.6468018,60.4266846 C49.3273193,60.6259521 50.0623535,60.7255859 50.8519043,60.7255859 Z M50.8519043,50.7772461 C50.2353027,50.7772461 49.7578125,50.5779785 49.4194336,50.1794434 C49.0810547,49.7809082 48.9118652,49.254541 48.9118652,48.6003418 C48.9118652,47.938623 49.0810547,47.4197754 49.4194336,47.0437988 C49.7578125,46.6678223 50.231543,46.479834 50.840625,46.479834 C51.4572266,46.479834 51.9347168,46.6734619 52.2730957,47.0607178 C52.6114746,47.4479736 52.7806641,47.9611816 52.7806641,48.6003418 C52.7806641,49.254541 52.6133545,49.7809082 52.2787354,50.1794434 C51.9441162,50.5779785 51.4685059,50.7772461 50.8519043,50.7772461 Z M50.8519043,58.0975098 C50.4984863,58.0975098 50.1807861,58.044873 49.8988037,57.9395996 C49.6168213,57.8343262 49.3761963,57.6801758 49.1769287,57.4771484 C48.9776611,57.2741211 48.8235107,57.0278564 48.7144775,56.7383545 C48.6054443,56.4488525 48.5509277,56.1236328 48.5509277,55.7626953 C48.5509277,55.4017578 48.6054443,55.0746582 48.7144775,54.7813965 C48.8235107,54.4881348 48.9776611,54.2399902 49.1769287,54.0369629 C49.3761963,53.8339355 49.6149414,53.6779053 49.8931641,53.5688721 C50.1713867,53.4598389 50.4834473,53.4053223 50.8293457,53.4053223 C51.1752441,53.4053223 51.4891846,53.4598389 51.771167,53.5688721 C52.0531494,53.6779053 52.2937744,53.8339355 52.493042,54.0369629 C52.6923096,54.2399902 52.84646,54.4881348 52.9554932,54.7813965 C53.0645264,55.0746582 53.119043,55.4017578 53.119043,55.7626953 C53.119043,56.4920898 52.9178955,57.0635742 52.5156006,57.4771484 C52.1133057,57.8907227 51.5587402,58.0975098 50.8519043,58.0975098 Z M64.1050781,60.7255859 C64.9322266,60.7255859 65.6860596,60.5921143 66.3665771,60.3251709 C67.0470947,60.0582275 67.6298584,59.6390137 68.1148682,59.0675293 C68.5998779,58.4960449 68.9758545,57.7685303 69.2427979,56.8849854 C69.5097412,56.0014404 69.6432129,54.9430664 69.6432129,53.7098633 L69.6432129,53.7098633 L69.6432129,50.8562012 C69.6432129,49.622998 69.5078613,48.564624 69.2371582,47.6810791 C68.9664551,46.7975342 68.5867187,46.0718994 68.0979492,45.5041748 C67.6091797,44.9364502 67.0245361,44.5191162 66.3440186,44.2521729 C65.663501,43.9852295 64.909668,43.8517578 64.0825195,43.8517578 C63.2553711,43.8517578 62.503418,43.9852295 61.8266602,44.2521729 C61.1499023,44.5191162 60.5671387,44.9364502 60.0783691,45.5041748 C59.5895996,46.0718994 59.2117432,46.7975342 58.9447998,47.6810791 C58.6778564,48.564624 58.5443848,49.622998 58.5443848,50.8562012 L58.5443848,50.8562012 L58.5443848,53.7098633 C58.5443848,54.9430664 58.6797363,56.0014404 58.9504395,56.8849854 C59.2211426,57.7685303 59.6008789,58.4960449 60.0896484,59.0675293 C60.578418,59.6390137 61.1630615,60.0582275 61.8435791,60.3251709 C62.5240967,60.5921143 63.2779297,60.7255859 64.1050781,60.7255859 Z M64.1050781,58.0975098 C63.7441406,58.0975098 63.4208008,58.029834 63.1350586,57.8944824 C62.8493164,57.7591309 62.6086914,57.5354248 62.4131836,57.2233643 C62.2176758,56.9113037 62.0672852,56.5033691 61.9620117,55.9995605 C61.8567383,55.495752 61.8041016,54.8753906 61.8041016,54.1384766 L61.8041016,54.1384766 L61.8041016,50.39375 C61.8041016,49.6643555 61.8548584,49.0515137 61.9563721,48.5552246 C62.0578857,48.0589355 62.2063965,47.6585205 62.4019043,47.3539795 C62.5974121,47.0494385 62.8361572,46.8294922 63.1181396,46.6941406 C63.4001221,46.5587891 63.721582,46.4911133 64.0825195,46.4911133 C64.443457,46.4911133 64.7667969,46.5587891 65.0525391,46.6941406 C65.3382812,46.8294922 65.5807861,47.0494385 65.7800537,47.3539795 C65.9793213,47.6585205 66.1297119,48.0589355 66.2312256,48.5552246 C66.3327393,49.0515137 66.3834961,49.6643555 66.3834961,50.39375 L66.3834961,50.39375 L66.3834961,54.1384766 C66.3834961,54.8753906 66.3327393,55.495752 66.2312256,55.9995605 C66.1297119,56.5033691 65.9830811,56.9113037 65.791333,57.2233643 C65.599585,57.5354248 65.3608398,57.7591309 65.0750977,57.8944824 C64.7893555,58.029834 64.4660156,58.0975098 64.1050781,58.0975098 Z M75.3730957,51.4765625 C75.9596191,51.4765625 76.4728271,51.3863281 76.9127197,51.2058594 C77.3526123,51.0253906 77.7229492,50.7828857 78.0237305,50.4783447 C78.3245117,50.1738037 78.5500977,49.816626 78.7004883,49.4068115 C78.8508789,48.9969971 78.9260742,48.5627441 78.9260742,48.1040527 L78.9260742,48.1040527 L78.9260742,47.2355469 C78.9260742,46.7693359 78.8508789,46.3313232 78.7004883,45.9215088 C78.5500977,45.5116943 78.3245117,45.1526367 78.0237305,44.8443359 C77.7229492,44.5360352 77.3488525,44.2916504 76.9014404,44.1111816 C76.4540283,43.9307129 75.9370605,43.8404785 75.3505371,43.8404785 C74.7715332,43.8404785 74.262085,43.9307129 73.8221924,44.1111816 C73.3822998,44.2916504 73.0119629,44.5360352 72.7111816,44.8443359 C72.4104004,45.1526367 72.1829346,45.5116943 72.0287842,45.9215088 C71.8746338,46.3313232 71.7975586,46.7693359 71.7975586,47.2355469 L71.7975586,47.2355469 L71.7975586,48.1040527 C71.7975586,48.5627441 71.8746338,48.9969971 72.0287842,49.4068115 C72.1829346,49.816626 72.4104004,50.1738037 72.7111816,50.4783447 C73.0119629,50.7828857 73.3860596,51.0253906 73.8334717,51.2058594 C74.2808838,51.3863281 74.7940918,51.4765625 75.3730957,51.4765625 Z M76.0160156,59.2705566 L84.0355957,46.4347168 L82.4452148,45.5774902 L74.4256348,58.4133301 L76.0160156,59.2705566 Z M75.3730957,49.6041992 C75.1324707,49.6041992 74.9256836,49.5628418 74.7527344,49.480127 C74.5797852,49.3974121 74.4331543,49.286499 74.3128418,49.1473877 C74.1925293,49.0082764 74.1041748,48.8484863 74.0477783,48.6680176 C73.9913818,48.4875488 73.9631836,48.2995605 73.9631836,48.1040527 L73.9631836,48.1040527 L73.9631836,47.2355469 C73.9631836,47.0400391 73.9913818,46.8501709 74.0477783,46.6659424 C74.1041748,46.4817139 74.1906494,46.3200439 74.3072021,46.1809326 C74.4237549,46.0418213 74.5685059,45.9309082 74.7414551,45.8481934 C74.9144043,45.7654785 75.1174316,45.7241211 75.3505371,45.7241211 C75.5911621,45.7241211 75.7998291,45.7654785 75.9765381,45.8481934 C76.1532471,45.9309082 76.297998,46.0418213 76.410791,46.1809326 C76.523584,46.3200439 76.6081787,46.4817139 76.6645752,46.6659424 C76.7209717,46.8501709 76.7491699,47.0400391 76.7491699,47.2355469 L76.7491699,47.2355469 L76.7491699,48.1040527 C76.7491699,48.2995605 76.7209717,48.4875488 76.6645752,48.6680176 C76.6081787,48.8484863 76.523584,49.0082764 76.410791,49.1473877 C76.297998,49.286499 76.155127,49.3974121 75.9821777,49.480127 C75.8092285,49.5628418 75.6062012,49.6041992 75.3730957,49.6041992 Z M83.2347656,60.7255859 C83.8212891,60.7255859 84.3344971,60.6372314 84.7743896,60.4605225 C85.2142822,60.2838135 85.5846191,60.0413086 85.8854004,59.7330078 C86.1861816,59.424707 86.4117676,59.0675293 86.5621582,58.6614746 C86.7125488,58.2554199 86.7877441,57.8192871 86.7877441,57.3530762 L86.7877441,57.3530762 L86.7877441,56.473291 C86.7877441,56.0145996 86.7125488,55.5784668 86.5621582,55.1648926 C86.4117676,54.7513184 86.1861816,54.3922607 85.8854004,54.0877197 C85.5846191,53.7831787 85.2105225,53.5406738 84.7631104,53.3602051 C84.3156982,53.1797363 83.7987305,53.089502 83.212207,53.089502 C82.6332031,53.089502 82.1237549,53.1797363 81.6838623,53.3602051 C81.2439697,53.5406738 80.8717529,53.7831787 80.5672119,54.0877197 C80.2626709,54.3922607 80.0333252,54.7513184 79.8791748,55.1648926 C79.7250244,55.5784668 79.6479492,56.0145996 79.6479492,56.473291 L79.6479492,56.473291 L79.6479492,57.3530762 C79.6479492,57.8192871 79.7250244,58.2554199 79.8791748,58.6614746 C80.0333252,59.0675293 80.2626709,59.424707 80.5672119,59.7330078 C80.8717529,60.0413086 81.2477295,60.2838135 81.6951416,60.4605225 C82.1425537,60.6372314 82.6557617,60.7255859 83.2347656,60.7255859 Z M83.2347656,58.8532227 C83.0166992,58.8532227 82.8211914,58.8118652 82.6482422,58.7291504 C82.475293,58.6464355 82.3267822,58.5355225 82.20271,58.3964111 C82.0786377,58.2572998 81.9827637,58.0975098 81.9150879,57.917041 C81.8474121,57.7365723 81.8135742,57.548584 81.8135742,57.3530762 L81.8135742,57.3530762 L81.8135742,56.473291 C81.8135742,56.2777832 81.8417725,56.0897949 81.8981689,55.9093262 C81.9545654,55.7288574 82.04104,55.5690674 82.1575928,55.4299561 C82.2741455,55.2908447 82.4207764,55.1799316 82.5974854,55.0972168 C82.7741943,55.014502 82.9791016,54.9731445 83.212207,54.9731445 C83.4453125,54.9731445 83.6502197,55.014502 83.8269287,55.0972168 C84.0036377,55.1799316 84.1502686,55.2908447 84.2668213,55.4299561 C84.383374,55.5690674 84.4698486,55.7288574 84.5262451,55.9093262 C84.5826416,56.0897949 84.6108398,56.2777832 84.6108398,56.473291 L84.6108398,56.473291 L84.6108398,57.3530762 C84.6108398,57.548584 84.5901611,57.7365723 84.5488037,57.917041 C84.5074463,58.0975098 84.4341309,58.2572998 84.3288574,58.3964111 C84.223584,58.5355225 84.0825928,58.6464355 83.9058838,58.7291504 C83.7291748,58.8118652 83.5054688,58.8532227 83.2347656,58.8532227 Z" id="80%" fill="#2A3653" fill-rule="nonzero"></path>
                            <path d="M40.2337891,78.2289063 C40.6033203,78.2289063 40.9524414,78.1655273 41.2811523,78.0387695 C41.6098633,77.9120117 41.8988281,77.7422852 42.1480469,77.5295898 C42.3972656,77.3168945 42.5981445,77.0698242 42.7506836,76.7883789 C42.9032227,76.5069336 42.9880859,76.2115234 43.0052734,75.9021484 L43.0052734,75.9021484 L41.8773437,75.9021484 C41.8601562,76.0955078 41.8053711,76.2749023 41.7129883,76.440332 C41.6206055,76.6057617 41.500293,76.7486328 41.3520508,76.8689453 C41.2038086,76.9892578 41.0330078,77.0837891 40.8396484,77.1525391 C40.6462891,77.2212891 40.4443359,77.2556641 40.2337891,77.2556641 C39.8599609,77.2556641 39.5505859,77.1826172 39.3056641,77.0365234 C39.0607422,76.8904297 38.8652344,76.6992188 38.7191406,76.4628906 C38.5730469,76.2265625 38.4699219,75.959082 38.4097656,75.6604492 C38.3496094,75.3618164 38.3195312,75.0578125 38.3195312,74.7484375 L38.3195312,74.7484375 L38.3195312,74.4777344 C38.3195312,74.1769531 38.3496094,73.8772461 38.4097656,73.5786133 C38.4699219,73.2799805 38.5741211,73.0114258 38.7223633,72.7729492 C38.8706055,72.5344727 39.0661133,72.3421875 39.3088867,72.1960938 C39.5516602,72.05 39.8578125,71.9769531 40.2273437,71.9769531 C40.4679687,71.9769531 40.6860352,72.0177734 40.881543,72.0994141 C41.0770508,72.1810547 41.2457031,72.2916992 41.3875,72.4313477 C41.5292969,72.5709961 41.6420898,72.7342773 41.7258789,72.9211914 C41.809668,73.1081055 41.8601562,73.3089844 41.8773437,73.5238281 L41.8773437,73.5238281 L43.0052734,73.5238281 C42.9880859,73.1671875 42.9107422,72.8341797 42.7732422,72.5248047 C42.6357422,72.2154297 42.4456055,71.9479492 42.202832,71.7223633 C41.9600586,71.4967773 41.672168,71.3195313 41.3391602,71.190625 C41.0061523,71.0617188 40.6355469,70.9972656 40.2273437,70.9972656 C39.703125,70.9972656 39.2476562,71.0907227 38.8609375,71.2776367 C38.4742187,71.4645508 38.1519531,71.7169922 37.8941406,72.0349609 C37.6363281,72.3529297 37.444043,72.7224609 37.3172852,73.1435547 C37.1905273,73.5646484 37.1271484,74.009375 37.1271484,74.4777344 L37.1271484,74.4777344 L37.1271484,74.7484375 C37.1271484,75.2167969 37.1905273,75.6615234 37.3172852,76.0826172 C37.444043,76.5037109 37.6363281,76.8732422 37.8941406,77.1912109 C38.1519531,77.5091797 38.475293,77.7616211 38.8641602,77.9485352 C39.2530273,78.1354492 39.7095703,78.2289063 40.2337891,78.2289063 Z M47.2076172,78.2289063 C47.6974609,78.2289063 48.1378906,78.1397461 48.5289062,77.9614258 C48.9199219,77.7831055 49.2529297,77.5360352 49.5279297,77.2202148 C49.8029297,76.9043945 50.0134766,76.5305664 50.1595703,76.0987305 C50.3056641,75.6668945 50.3787109,75.1974609 50.3787109,74.6904297 L50.3787109,74.6904297 L50.3787109,74.5486328 C50.3787109,74.0416016 50.3056641,73.572168 50.1595703,73.140332 C50.0134766,72.7084961 49.8029297,72.3335938 49.5279297,72.015625 C49.2529297,71.6976563 48.9188477,71.4484375 48.5256836,71.2679688 C48.1325195,71.0875 47.6888672,70.9972656 47.1947266,70.9972656 C46.7091797,70.9972656 46.2708984,71.0875 45.8798828,71.2679688 C45.4888672,71.4484375 45.1569336,71.6976563 44.884082,72.015625 C44.6112305,72.3335938 44.4006836,72.7084961 44.2524414,73.140332 C44.1041992,73.572168 44.0300781,74.0416016 44.0300781,74.5486328 L44.0300781,74.5486328 L44.0300781,74.6904297 C44.0300781,75.1974609 44.1041992,75.6668945 44.2524414,76.0987305 C44.4006836,76.5305664 44.6123047,76.9043945 44.8873047,77.2202148 C45.1623047,77.5360352 45.4953125,77.7831055 45.8863281,77.9614258 C46.2773438,78.1397461 46.7177734,78.2289063 47.2076172,78.2289063 Z M47.2076172,77.2556641 C46.8767578,77.2556641 46.587793,77.1869141 46.3407227,77.0494141 C46.0936523,76.9119141 45.8874023,76.7260742 45.7219727,76.4918945 C45.556543,76.2577148 45.4330078,75.9859375 45.3513672,75.6765625 C45.2697266,75.3671875 45.2289062,75.0384766 45.2289062,74.6904297 L45.2289062,74.6904297 L45.2289062,74.5486328 C45.2289062,74.2048828 45.2697266,73.8772461 45.3513672,73.5657227 C45.4330078,73.2541992 45.556543,72.9813477 45.7219727,72.747168 C45.8874023,72.5129883 46.0925781,72.3260742 46.3375,72.1864258 C46.5824219,72.0467773 46.8681641,71.9769531 47.1947266,71.9769531 C47.5255859,71.9769531 47.815625,72.0467773 48.0648437,72.1864258 C48.3140625,72.3260742 48.5213867,72.5129883 48.6868164,72.747168 C48.8522461,72.9813477 48.9768555,73.2541992 49.0606445,73.5657227 C49.1444336,73.8772461 49.1863281,74.2048828 49.1863281,74.5486328 L49.1863281,74.5486328 L49.1863281,74.6904297 C49.1863281,75.0384766 49.1444336,75.3671875 49.0606445,75.6765625 C48.9768555,75.9859375 48.8533203,76.2577148 48.6900391,76.4918945 C48.5267578,76.7260742 48.3205078,76.9119141 48.0712891,77.0494141 C47.8220703,77.1869141 47.5341797,77.2556641 47.2076172,77.2556641 Z M54.5230469,78.1 L57.0238281,71.1261719 L55.8056641,71.1261719 L54.0783203,76.4822266 L52.3058594,71.1261719 L51.0876953,71.1261719 L53.6142578,78.1 L54.5230469,78.1 Z M60.98125,78.2289063 C61.3292969,78.2289063 61.6408203,78.1913086 61.9158203,78.1161133 C62.1908203,78.040918 62.434668,77.9399414 62.6473633,77.8131836 C62.8600586,77.6864258 63.0458984,77.5424805 63.2048828,77.3813477 C63.3638672,77.2202148 63.4992187,77.0537109 63.6109375,76.8818359 L63.6109375,76.8818359 L62.8826172,76.3146484 C62.6634766,76.5982422 62.4078125,76.8259766 62.115625,76.9978516 C61.8234375,77.1697266 61.4667969,77.2556641 61.0457031,77.2556641 C60.7277344,77.2556641 60.4430664,77.1955078 60.1916992,77.0751953 C59.940332,76.9548828 59.7254883,76.7916016 59.547168,76.5853516 C59.3688477,76.3791016 59.2313477,76.1363281 59.134668,75.8570313 C59.0379883,75.5777344 58.9853516,75.2769531 58.9767578,74.9546875 L58.9767578,74.9546875 L63.7011719,74.9546875 L63.7011719,74.4197266 C63.7011719,73.9298828 63.6453125,73.4765625 63.5335937,73.0597656 C63.421875,72.6429688 63.2489258,72.2820313 63.0147461,71.9769531 C62.7805664,71.671875 62.4830078,71.4323242 62.1220703,71.2583008 C61.7611328,71.0842773 61.3314453,70.9972656 60.8330078,70.9972656 C60.4376953,70.9972656 60.0574219,71.077832 59.6921875,71.2389648 C59.3269531,71.4000977 59.0025391,71.6332031 58.7189453,71.9382813 C58.4353516,72.2433594 58.2086914,72.6193359 58.0389648,73.0662109 C57.8692383,73.5130859 57.784375,74.0201172 57.784375,74.5873047 L57.784375,74.5873047 L57.784375,74.8580078 C57.784375,75.3478516 57.8595703,75.7990234 58.0099609,76.2115234 C58.1603516,76.6240234 58.3751953,76.9795898 58.6544922,77.2782227 C58.9337891,77.5768555 59.2700195,77.8099609 59.6631836,77.9775391 C60.0563477,78.1451172 60.4957031,78.2289063 60.98125,78.2289063 Z M62.5087891,73.975 L59.0154297,73.975 C59.0541016,73.6527344 59.1260742,73.3669922 59.2313477,73.1177734 C59.3366211,72.8685547 59.46875,72.6601563 59.6277344,72.4925781 C59.7867187,72.325 59.9671875,72.197168 60.1691406,72.109082 C60.3710938,72.0209961 60.5923828,71.9769531 60.8330078,71.9769531 C61.1380859,71.9769531 61.39375,72.0328125 61.6,72.1445313 C61.80625,72.25625 61.9749023,72.4023438 62.105957,72.5828125 C62.2370117,72.7632813 62.3336914,72.9673828 62.3959961,73.1951172 C62.4583008,73.4228516 62.4958984,73.6527344 62.5087891,73.8847656 L62.5087891,73.8847656 L62.5087891,73.975 Z M66.2728516,78.1 L66.2728516,73.15 C66.4017578,72.8449219 66.5961914,72.6021484 66.8561523,72.4216797 C67.1161133,72.2412109 67.4523437,72.1509766 67.8648438,72.1509766 C67.9765625,72.1509766 68.0764648,72.1541992 68.1645508,72.1606445 C68.2526367,72.1670898 68.3482422,72.1789063 68.4513672,72.1960938 L68.4513672,72.1960938 L68.4513672,71.0875 C68.4083984,71.0660156 68.3310547,71.0456055 68.2193359,71.0262695 C68.1076172,71.0069336 68.0087891,70.9972656 67.9228516,70.9972656 C67.5361328,70.9972656 67.2074219,71.0810547 66.9367187,71.2486328 C66.6660156,71.4162109 66.4404297,71.6439453 66.2599609,71.9318359 L66.2599609,71.9318359 L66.240625,71.1261719 L65.0804687,71.1261719 L65.0804687,78.1 L66.2728516,78.1 Z M71.4419922,78.2289063 C71.6568359,78.2289063 71.8609375,78.2063477 72.0542969,78.1612305 C72.2476563,78.1161133 72.4270508,78.0538086 72.5924805,77.9743164 C72.7579102,77.8948242 72.9104492,77.8024414 73.0500977,77.697168 C73.1897461,77.5918945 73.3154297,77.48125 73.4271484,77.3652344 C73.4443359,77.5070313 73.4658203,77.643457 73.4916016,77.7745117 C73.5173828,77.9055664 73.5517578,78.0140625 73.5947266,78.1 L73.5947266,78.1 L74.8451172,78.1 L74.8451172,77.996875 C74.7634766,77.8078125 74.7022461,77.5833008 74.6614258,77.3233398 C74.6206055,77.0633789 74.6001953,76.8152344 74.6001953,76.5789063 L74.6001953,76.5789063 L74.6001953,73.3369141 C74.6001953,72.9458984 74.5357422,72.6042969 74.4068359,72.3121094 C74.2779297,72.0199219 74.0996094,71.7760742 73.871875,71.5805664 C73.6441406,71.3850586 73.3702148,71.2389648 73.0500977,71.1422852 C72.7299805,71.0456055 72.3808594,70.9972656 72.0027344,70.9972656 C71.5816406,70.9972656 71.200293,71.0584961 70.8586914,71.180957 C70.5170898,71.303418 70.2259766,71.4624023 69.9853516,71.6579102 C69.7447266,71.853418 69.5588867,72.0736328 69.427832,72.3185547 C69.2967773,72.5634766 69.23125,72.8105469 69.23125,73.0597656 L69.23125,73.0597656 L70.4300781,73.0597656 C70.4300781,72.9136719 70.4666016,72.7740234 70.5396484,72.6408203 C70.6126953,72.5076172 70.7147461,72.3905273 70.8458008,72.2895508 C70.9768555,72.1885742 71.1347656,72.1080078 71.3195312,72.0478516 C71.5042969,71.9876953 71.7083984,71.9576172 71.9318359,71.9576172 C72.4173828,71.9576172 72.7847656,72.0811523 73.0339844,72.3282227 C73.2832031,72.575293 73.4078125,72.9072266 73.4078125,73.3240234 L73.4078125,73.3240234 L73.4078125,73.871875 L72.221875,73.871875 C71.7449219,73.871875 71.3130859,73.9212891 70.9263672,74.0201172 C70.5396484,74.1189453 70.2098633,74.2650391 69.9370117,74.4583984 C69.6641602,74.6517578 69.4546875,74.8913086 69.3085938,75.1770508 C69.1625,75.462793 69.0894531,75.7925781 69.0894531,76.1664063 C69.0894531,76.4542969 69.1453125,76.7239258 69.2570312,76.975293 C69.36875,77.2266602 69.5266602,77.4447266 69.7307617,77.6294922 C69.9348633,77.8142578 70.1819336,77.9603516 70.4719727,78.0677734 C70.7620117,78.1751953 71.0853516,78.2289063 71.4419922,78.2289063 Z M71.6160156,77.1912109 C71.396875,77.1912109 71.2045898,77.1600586 71.0391602,77.0977539 C70.8737305,77.0354492 70.734082,76.9516602 70.6202148,76.8463867 C70.5063477,76.7411133 70.4214844,76.6154297 70.365625,76.4693359 C70.3097656,76.3232422 70.2818359,76.1664063 70.2818359,75.9988281 C70.2818359,75.5691406 70.4666016,75.2479492 70.8361328,75.0352539 C71.2056641,74.8225586 71.7320313,74.7162109 72.4152344,74.7162109 L72.4152344,74.7162109 L73.4078125,74.7162109 L73.4078125,76.1470703 C73.3433594,76.2802734 73.2541992,76.4091797 73.140332,76.5337891 C73.0264648,76.6583984 72.8921875,76.769043 72.7375,76.8657227 C72.5828125,76.9624023 72.4109375,77.0408203 72.221875,77.1009766 C72.0328125,77.1611328 71.8308594,77.1912109 71.6160156,77.1912109 Z M79.1183594,80.8457031 C79.5566406,80.8457031 79.95625,80.78125 80.3171875,80.6523438 C80.678125,80.5234375 80.9896484,80.3354492 81.2517578,80.0883789 C81.5138672,79.8413086 81.7168945,79.5383789 81.8608398,79.1795898 C82.0047852,78.8208008 82.0767578,78.4115234 82.0767578,77.9517578 L82.0767578,77.9517578 L82.0767578,71.1261719 L80.9875,71.1261719 L80.9294922,71.8996094 C80.6974609,71.6074219 80.4181641,71.3839844 80.0916016,71.2292969 C79.7650391,71.0746094 79.3804688,70.9972656 78.9378906,70.9972656 C78.5125,70.9972656 78.1300781,71.0832031 77.790625,71.2550781 C77.4511719,71.4269531 77.162207,71.6686523 76.9237305,71.9801758 C76.6852539,72.2916992 76.5026367,72.6655273 76.3758789,73.1016602 C76.2491211,73.537793 76.1857422,74.0222656 76.1857422,74.5550781 L76.1857422,74.5550781 L76.1857422,74.6904297 C76.1857422,75.2017578 76.2501953,75.6733398 76.3791016,76.1051758 C76.5080078,76.5370117 76.6916992,76.9108398 76.9301758,77.2266602 C77.1686523,77.5424805 77.456543,77.7884766 77.7938477,77.9646484 C78.1311523,78.1408203 78.5082031,78.2289063 78.925,78.2289063 C79.3546875,78.2289063 79.7295898,78.1580078 80.049707,78.0162109 C80.3698242,77.8744141 80.6458984,77.6703125 80.8779297,77.4039063 L80.8779297,77.4039063 L80.8779297,78.0097656 C80.8779297,78.3148438 80.8349609,78.5823242 80.7490234,78.812207 C80.6630859,79.0420898 80.5395508,79.2365234 80.378418,79.3955078 C80.2172852,79.5544922 80.0228516,79.6737305 79.7951172,79.7532227 C79.5673828,79.8327148 79.3138672,79.8724609 79.0345703,79.8724609 C78.8755859,79.8724609 78.7155273,79.8563477 78.5543945,79.8241211 C78.3932617,79.7918945 78.2342773,79.7392578 78.0774414,79.6662109 C77.9206055,79.5931641 77.7648437,79.4964844 77.6101562,79.3761719 C77.4554687,79.2558594 77.3050781,79.1054688 77.1589844,78.925 L77.1589844,78.925 L76.5402344,79.6404297 C76.6949219,79.8681641 76.8818359,80.059375 77.1009766,80.2140625 C77.3201172,80.36875 77.5489258,80.4922852 77.7874023,80.584668 C78.0258789,80.6770508 78.262207,80.7436523 78.4963867,80.7844727 C78.7305664,80.825293 78.9378906,80.8457031 79.1183594,80.8457031 Z M79.2214844,77.2169922 C78.8992188,77.2169922 78.6220703,77.1503906 78.3900391,77.0171875 C78.1580078,76.8839844 77.9678711,76.7035156 77.8196289,76.4757813 C77.6713867,76.2480469 77.5618164,75.9805664 77.490918,75.6733398 C77.4200195,75.3661133 77.3845703,75.0384766 77.3845703,74.6904297 L77.3845703,74.6904297 L77.3845703,74.5550781 C77.3845703,74.2070313 77.4200195,73.8793945 77.490918,73.572168 C77.5618164,73.2649414 77.6724609,72.9953125 77.8228516,72.7632813 C77.9732422,72.53125 78.1644531,72.3475586 78.3964844,72.212207 C78.6285156,72.0768555 78.9078125,72.0091797 79.234375,72.0091797 C79.440625,72.0091797 79.6275391,72.0338867 79.7951172,72.0833008 C79.9626953,72.1327148 80.1141602,72.2025391 80.2495117,72.2927734 C80.3848633,72.3830078 80.5041016,72.4893555 80.6072266,72.6118164 C80.7103516,72.7342773 80.8005859,72.8664063 80.8779297,73.0082031 L80.8779297,73.0082031 L80.8779297,76.1921875 C80.8005859,76.3425781 80.7103516,76.4800781 80.6072266,76.6046875 C80.5041016,76.7292969 80.3848633,76.8367188 80.2495117,76.9269531 C80.1141602,77.0171875 79.9616211,77.0880859 79.7918945,77.1396484 C79.622168,77.1912109 79.4320313,77.2169922 79.2214844,77.2169922 Z M86.7689453,78.2289063 C87.1169922,78.2289063 87.4285156,78.1913086 87.7035156,78.1161133 C87.9785156,78.040918 88.2223633,77.9399414 88.4350586,77.8131836 C88.6477539,77.6864258 88.8335938,77.5424805 88.9925781,77.3813477 C89.1515625,77.2202148 89.2869141,77.0537109 89.3986328,76.8818359 L89.3986328,76.8818359 L88.6703125,76.3146484 C88.4511719,76.5982422 88.1955078,76.8259766 87.9033203,76.9978516 C87.6111328,77.1697266 87.2544922,77.2556641 86.8333984,77.2556641 C86.5154297,77.2556641 86.2307617,77.1955078 85.9793945,77.0751953 C85.7280273,76.9548828 85.5131836,76.7916016 85.3348633,76.5853516 C85.156543,76.3791016 85.019043,76.1363281 84.9223633,75.8570313 C84.8256836,75.5777344 84.7730469,75.2769531 84.7644531,74.9546875 L84.7644531,74.9546875 L89.4888672,74.9546875 L89.4888672,74.4197266 C89.4888672,73.9298828 89.4330078,73.4765625 89.3212891,73.0597656 C89.2095703,72.6429688 89.0366211,72.2820313 88.8024414,71.9769531 C88.5682617,71.671875 88.2707031,71.4323242 87.9097656,71.2583008 C87.5488281,71.0842773 87.1191406,70.9972656 86.6207031,70.9972656 C86.2253906,70.9972656 85.8451172,71.077832 85.4798828,71.2389648 C85.1146484,71.4000977 84.7902344,71.6332031 84.5066406,71.9382813 C84.2230469,72.2433594 83.9963867,72.6193359 83.8266602,73.0662109 C83.6569336,73.5130859 83.5720703,74.0201172 83.5720703,74.5873047 L83.5720703,74.5873047 L83.5720703,74.8580078 C83.5720703,75.3478516 83.6472656,75.7990234 83.7976563,76.2115234 C83.9480469,76.6240234 84.1628906,76.9795898 84.4421875,77.2782227 C84.7214844,77.5768555 85.0577148,77.8099609 85.4508789,77.9775391 C85.844043,78.1451172 86.2833984,78.2289063 86.7689453,78.2289063 Z M88.2964844,73.975 L84.803125,73.975 C84.8417969,73.6527344 84.9137695,73.3669922 85.019043,73.1177734 C85.1243164,72.8685547 85.2564453,72.6601563 85.4154297,72.4925781 C85.5744141,72.325 85.7548828,72.197168 85.9568359,72.109082 C86.1587891,72.0209961 86.3800781,71.9769531 86.6207031,71.9769531 C86.9257812,71.9769531 87.1814453,72.0328125 87.3876953,72.1445313 C87.5939453,72.25625 87.7625977,72.4023438 87.8936523,72.5828125 C88.024707,72.7632813 88.1213867,72.9673828 88.1836914,73.1951172 C88.2459961,73.4228516 88.2835937,73.6527344 88.2964844,73.8847656 L88.2964844,73.8847656 L88.2964844,73.975 Z" id="coverage" fill="#2A3653" fill-rule="nonzero"></path>
                        </g>
                    </g>
                </g>
            </g>
        </g>
    </g>
</svg>