<?xml version="1.0" encoding="UTF-8"?>
<svg width="128px" height="127px" viewBox="0 0 128 127" version="1.1" xmlns="http://www.w3.org/2000/svg" xmlns:xlink="http://www.w3.org/1999/xlink">
    <!-- Generator: sketchtool 60.1 (101010) - https://sketch.com -->
    <title>8044E2C1-2B54-4982-ADCA-AFD34C3E6C6A</title>
    <desc>Created with sketchtool.</desc>
    <defs>
        <polygon id="path-1" points="0 0 126.72 0 126.72 126.719808 0 126.719808"></polygon>
    </defs>
    <g id="Page-1" stroke="none" stroke-width="1" fill="none" fill-rule="evenodd">
        <g id="Desktop-HD" transform="translate(-1126.000000, -165.000000)">
            <g id="Group-20" transform="translate(1020.000000, 71.000000)">
                <g id="Group-22">
                    <g id="Group-18" transform="translate(106.000000, 94.000000)">
                        <g id="Group-6-Copy" transform="translate(64.100000, 63.500000) scale(-1, 1) translate(-64.100000, -63.500000) translate(0.600000, 0.000000)">
                            <path d="M63.36,21.119808 C40.06848,21.119808 21.12,40.068288 21.12,63.359808 C21.12,86.651328 40.06848,105.599808 63.36,105.599808 C86.65152,105.599808 105.6,86.651328 105.6,63.359808 C105.6,40.068288 86.65152,21.119808 63.36,21.119808 M63.36,117.119808 C33.71712,117.119808 9.6,93.002688 9.6,63.359808 C9.6,33.716928 33.71712,9.599808 63.36,9.599808 C93.00288,9.599808 117.12,33.716928 117.12,63.359808 C117.12,93.002688 93.00288,117.119808 63.36,117.119808" id="Fill-1" fill="#A2AFCC"></path>
                            <g id="Group-5">
                                <mask id="mask-2" fill="white">
                                    <use xlink:href="#path-1"></use>
                                </mask>
                                <g id="Clip-4"></g>
                                <path d="M63.36,126.719808 C28.42368,126.719808 0,98.296128 0,63.359808 C0,43.161408 9.76128,23.999808 26.11008,12.101568 L38.53632,29.178048 C27.63264,37.115328 21.12,49.892928 21.12,63.359808 C21.12,86.651328 40.06848,105.599808 63.36,105.599808 C86.65152,105.599808 105.6,86.651328 105.6,63.359808 C105.6,40.068288 86.65152,21.119808 63.36,21.119808 L63.36,-0.000192 C98.29632,-0.000192 126.72,28.423488 126.72,63.359808 C126.72,98.296128 98.29632,126.719808 63.36,126.719808" id="Fill-3" fill="#DFE6F3" mask="url(#mask-2)"></path>
                            </g>
                        </g>
                        <path d="M48.9967285,59.5579102 C50.4028809,59.5579102 51.6285645,59.3436035 52.6737793,58.9149902 C53.7189941,58.486377 54.5893799,57.8791748 55.2849365,57.0933838 C55.9804932,56.3075928 56.5012207,55.3638916 56.8471191,54.2622803 C57.1930176,53.1606689 57.3659668,51.9368652 57.3659668,50.5908691 L57.3659668,50.5908691 L57.3659668,49.4516602 C57.3659668,48.4515625 57.234375,47.5398193 56.9711914,46.7164307 C56.7080078,45.893042 56.335791,45.1880859 55.854541,44.6015625 C55.373291,44.0150391 54.7886475,43.5601074 54.1006104,43.2367676 C53.4125732,42.9134277 52.6474609,42.7517578 51.8052734,42.7517578 C50.9630859,42.7517578 50.2017334,42.9059082 49.5212158,43.214209 C48.8406982,43.5225098 48.2616943,43.9398438 47.7842041,44.4662109 C47.3067139,44.9925781 46.9382568,45.6072998 46.678833,46.310376 C46.4194092,47.0134521 46.2896973,47.7635254 46.2896973,48.5605957 C46.2896973,49.3501465 46.3930908,50.0814209 46.5998779,50.7544189 C46.806665,51.427417 47.1130859,52.0101807 47.5191406,52.50271 C47.9251953,52.9952393 48.427124,53.3824951 49.0249268,53.6644775 C49.6227295,53.94646 50.3088867,54.0874512 51.0833984,54.0874512 C51.6624023,54.0874512 52.2056885,53.9746582 52.7132568,53.7490723 C53.2208252,53.5234863 53.6701172,53.2189453 54.0611328,52.8354492 C54.0009766,53.4821289 53.8562256,54.0536133 53.6268799,54.5499023 C53.3975342,55.0461914 53.0741943,55.4635254 52.6568604,55.8019043 C52.2395264,56.1402832 51.7263184,56.3978271 51.1172363,56.5745361 C50.5081543,56.7512451 49.7900391,56.8395996 48.9628906,56.8395996 L48.9628906,56.8395996 L48.7373047,56.8395996 L48.7373047,59.5579102 L48.9967285,59.5579102 Z M51.8842285,51.5947266 C51.4856934,51.5947266 51.1397949,51.5138916 50.8465332,51.3522217 C50.5532715,51.1905518 50.3107666,50.9687256 50.1190186,50.6867432 C49.9272705,50.4047607 49.7825195,50.079541 49.6847656,49.711084 C49.5870117,49.342627 49.5381348,48.9478516 49.5381348,48.5267578 C49.5381348,48.1207031 49.5870117,47.7296875 49.6847656,47.3537109 C49.7825195,46.9777344 49.9272705,46.6431152 50.1190186,46.3498535 C50.3107666,46.0565918 50.545752,45.8216064 50.8239746,45.6448975 C51.1021973,45.4681885 51.4217773,45.379834 51.7827148,45.379834 C52.1135742,45.379834 52.4199951,45.4512695 52.7019775,45.5941406 C52.98396,45.7370117 53.2302246,45.9531982 53.4407715,46.2427002 C53.6513184,46.5322021 53.8148682,46.8950195 53.9314209,47.3311523 C54.0479736,47.7672852 54.10625,48.2786133 54.10625,48.8651367 L54.10625,48.8651367 L54.10625,50.207373 C53.9107422,50.5908691 53.6231201,50.9179688 53.2433838,51.1886719 C52.8636475,51.459375 52.4105957,51.5947266 51.8842285,51.5947266 Z M65.2050781,59.6255859 C66.0322266,59.6255859 66.7860596,59.4921143 67.4665771,59.2251709 C68.1470947,58.9582275 68.7298584,58.5390137 69.2148682,57.9675293 C69.6998779,57.3960449 70.0758545,56.6685303 70.3427979,55.7849854 C70.6097412,54.9014404 70.7432129,53.8430664 70.7432129,52.6098633 L70.7432129,52.6098633 L70.7432129,49.7562012 C70.7432129,48.522998 70.6078613,47.464624 70.3371582,46.5810791 C70.0664551,45.6975342 69.6867188,44.9718994 69.1979492,44.4041748 C68.7091797,43.8364502 68.1245361,43.4191162 67.4440186,43.1521729 C66.763501,42.8852295 66.009668,42.7517578 65.1825195,42.7517578 C64.3553711,42.7517578 63.603418,42.8852295 62.9266602,43.1521729 C62.2499023,43.4191162 61.6671387,43.8364502 61.1783691,44.4041748 C60.6895996,44.9718994 60.3117432,45.6975342 60.0447998,46.5810791 C59.7778564,47.464624 59.6443848,48.522998 59.6443848,49.7562012 L59.6443848,49.7562012 L59.6443848,52.6098633 C59.6443848,53.8430664 59.7797363,54.9014404 60.0504395,55.7849854 C60.3211426,56.6685303 60.7008789,57.3960449 61.1896484,57.9675293 C61.678418,58.5390137 62.2630615,58.9582275 62.9435791,59.2251709 C63.6240967,59.4921143 64.3779297,59.6255859 65.2050781,59.6255859 Z M65.2050781,56.9975098 C64.8441406,56.9975098 64.5208008,56.929834 64.2350586,56.7944824 C63.9493164,56.6591309 63.7086914,56.4354248 63.5131836,56.1233643 C63.3176758,55.8113037 63.1672852,55.4033691 63.0620117,54.8995605 C62.9567383,54.395752 62.9041016,53.7753906 62.9041016,53.0384766 L62.9041016,53.0384766 L62.9041016,49.29375 C62.9041016,48.5643555 62.9548584,47.9515137 63.0563721,47.4552246 C63.1578857,46.9589355 63.3063965,46.5585205 63.5019043,46.2539795 C63.6974121,45.9494385 63.9361572,45.7294922 64.2181396,45.5941406 C64.5001221,45.4587891 64.821582,45.3911133 65.1825195,45.3911133 C65.543457,45.3911133 65.8667969,45.4587891 66.1525391,45.5941406 C66.4382813,45.7294922 66.6807861,45.9494385 66.8800537,46.2539795 C67.0793213,46.5585205 67.2297119,46.9589355 67.3312256,47.4552246 C67.4327393,47.9515137 67.4834961,48.5643555 67.4834961,49.29375 L67.4834961,49.29375 L67.4834961,53.0384766 C67.4834961,53.7753906 67.4327393,54.395752 67.3312256,54.8995605 C67.2297119,55.4033691 67.0830811,55.8113037 66.891333,56.1233643 C66.699585,56.4354248 66.4608398,56.6591309 66.1750977,56.7944824 C65.8893555,56.929834 65.5660156,56.9975098 65.2050781,56.9975098 Z M76.4730957,50.3765625 C77.0596191,50.3765625 77.5728271,50.2863281 78.0127197,50.1058594 C78.4526123,49.9253906 78.8229492,49.6828857 79.1237305,49.3783447 C79.4245117,49.0738037 79.6500977,48.716626 79.8004883,48.3068115 C79.9508789,47.8969971 80.0260742,47.4627441 80.0260742,47.0040527 L80.0260742,47.0040527 L80.0260742,46.1355469 C80.0260742,45.6693359 79.9508789,45.2313232 79.8004883,44.8215088 C79.6500977,44.4116943 79.4245117,44.0526367 79.1237305,43.7443359 C78.8229492,43.4360352 78.4488525,43.1916504 78.0014404,43.0111816 C77.5540283,42.8307129 77.0370605,42.7404785 76.4505371,42.7404785 C75.8715332,42.7404785 75.362085,42.8307129 74.9221924,43.0111816 C74.4822998,43.1916504 74.1119629,43.4360352 73.8111816,43.7443359 C73.5104004,44.0526367 73.2829346,44.4116943 73.1287842,44.8215088 C72.9746338,45.2313232 72.8975586,45.6693359 72.8975586,46.1355469 L72.8975586,46.1355469 L72.8975586,47.0040527 C72.8975586,47.4627441 72.9746338,47.8969971 73.1287842,48.3068115 C73.2829346,48.716626 73.5104004,49.0738037 73.8111816,49.3783447 C74.1119629,49.6828857 74.4860596,49.9253906 74.9334717,50.1058594 C75.3808838,50.2863281 75.8940918,50.3765625 76.4730957,50.3765625 Z M77.1160156,58.1705566 L85.1355957,45.3347168 L83.5452148,44.4774902 L75.5256348,57.3133301 L77.1160156,58.1705566 Z M76.4730957,48.5041992 C76.2324707,48.5041992 76.0256836,48.4628418 75.8527344,48.380127 C75.6797852,48.2974121 75.5331543,48.186499 75.4128418,48.0473877 C75.2925293,47.9082764 75.2041748,47.7484863 75.1477783,47.5680176 C75.0913818,47.3875488 75.0631836,47.1995605 75.0631836,47.0040527 L75.0631836,47.0040527 L75.0631836,46.1355469 C75.0631836,45.9400391 75.0913818,45.7501709 75.1477783,45.5659424 C75.2041748,45.3817139 75.2906494,45.2200439 75.4072021,45.0809326 C75.5237549,44.9418213 75.6685059,44.8309082 75.8414551,44.7481934 C76.0144043,44.6654785 76.2174316,44.6241211 76.4505371,44.6241211 C76.6911621,44.6241211 76.8998291,44.6654785 77.0765381,44.7481934 C77.2532471,44.8309082 77.397998,44.9418213 77.510791,45.0809326 C77.623584,45.2200439 77.7081787,45.3817139 77.7645752,45.5659424 C77.8209717,45.7501709 77.8491699,45.9400391 77.8491699,46.1355469 L77.8491699,46.1355469 L77.8491699,47.0040527 C77.8491699,47.1995605 77.8209717,47.3875488 77.7645752,47.5680176 C77.7081787,47.7484863 77.623584,47.9082764 77.510791,48.0473877 C77.397998,48.186499 77.255127,48.2974121 77.0821777,48.380127 C76.9092285,48.4628418 76.7062012,48.5041992 76.4730957,48.5041992 Z M84.3347656,59.6255859 C84.9212891,59.6255859 85.4344971,59.5372314 85.8743896,59.3605225 C86.3142822,59.1838135 86.6846191,58.9413086 86.9854004,58.6330078 C87.2861816,58.324707 87.5117676,57.9675293 87.6621582,57.5614746 C87.8125488,57.1554199 87.8877441,56.7192871 87.8877441,56.2530762 L87.8877441,56.2530762 L87.8877441,55.373291 C87.8877441,54.9145996 87.8125488,54.4784668 87.6621582,54.0648926 C87.5117676,53.6513184 87.2861816,53.2922607 86.9854004,52.9877197 C86.6846191,52.6831787 86.3105225,52.4406738 85.8631104,52.2602051 C85.4156982,52.0797363 84.8987305,51.989502 84.312207,51.989502 C83.7332031,51.989502 83.2237549,52.0797363 82.7838623,52.2602051 C82.3439697,52.4406738 81.9717529,52.6831787 81.6672119,52.9877197 C81.3626709,53.2922607 81.1333252,53.6513184 80.9791748,54.0648926 C80.8250244,54.4784668 80.7479492,54.9145996 80.7479492,55.373291 L80.7479492,55.373291 L80.7479492,56.2530762 C80.7479492,56.7192871 80.8250244,57.1554199 80.9791748,57.5614746 C81.1333252,57.9675293 81.3626709,58.324707 81.6672119,58.6330078 C81.9717529,58.9413086 82.3477295,59.1838135 82.7951416,59.3605225 C83.2425537,59.5372314 83.7557617,59.6255859 84.3347656,59.6255859 Z M84.3347656,57.7532227 C84.1166992,57.7532227 83.9211914,57.7118652 83.7482422,57.6291504 C83.575293,57.5464355 83.4267822,57.4355225 83.30271,57.2964111 C83.1786377,57.1572998 83.0827637,56.9975098 83.0150879,56.817041 C82.9474121,56.6365723 82.9135742,56.448584 82.9135742,56.2530762 L82.9135742,56.2530762 L82.9135742,55.373291 C82.9135742,55.1777832 82.9417725,54.9897949 82.9981689,54.8093262 C83.0545654,54.6288574 83.14104,54.4690674 83.2575928,54.3299561 C83.3741455,54.1908447 83.5207764,54.0799316 83.6974854,53.9972168 C83.8741943,53.914502 84.0791016,53.8731445 84.312207,53.8731445 C84.5453125,53.8731445 84.7502197,53.914502 84.9269287,53.9972168 C85.1036377,54.0799316 85.2502686,54.1908447 85.3668213,54.3299561 C85.483374,54.4690674 85.5698486,54.6288574 85.6262451,54.8093262 C85.6826416,54.9897949 85.7108398,55.1777832 85.7108398,55.373291 L85.7108398,55.373291 L85.7108398,56.2530762 C85.7108398,56.448584 85.6901611,56.6365723 85.6488037,56.817041 C85.6074463,56.9975098 85.5341309,57.1572998 85.4288574,57.2964111 C85.323584,57.4355225 85.1825928,57.5464355 85.0058838,57.6291504 C84.8291748,57.7118652 84.6054688,57.7532227 84.3347656,57.7532227 Z" id="90%" fill="#2A3653" fill-rule="nonzero"></path>
                        <path d="M41.3337891,78.2289063 C41.7033203,78.2289063 42.0524414,78.1655273 42.3811523,78.0387695 C42.7098633,77.9120117 42.9988281,77.7422852 43.2480469,77.5295898 C43.4972656,77.3168945 43.6981445,77.0698242 43.8506836,76.7883789 C44.0032227,76.5069336 44.0880859,76.2115234 44.1052734,75.9021484 L44.1052734,75.9021484 L42.9773438,75.9021484 C42.9601563,76.0955078 42.9053711,76.2749023 42.8129883,76.440332 C42.7206055,76.6057617 42.600293,76.7486328 42.4520508,76.8689453 C42.3038086,76.9892578 42.1330078,77.0837891 41.9396484,77.1525391 C41.7462891,77.2212891 41.5443359,77.2556641 41.3337891,77.2556641 C40.9599609,77.2556641 40.6505859,77.1826172 40.4056641,77.0365234 C40.1607422,76.8904297 39.9652344,76.6992188 39.8191406,76.4628906 C39.6730469,76.2265625 39.5699219,75.959082 39.5097656,75.6604492 C39.4496094,75.3618164 39.4195313,75.0578125 39.4195313,74.7484375 L39.4195313,74.7484375 L39.4195313,74.4777344 C39.4195313,74.1769531 39.4496094,73.8772461 39.5097656,73.5786133 C39.5699219,73.2799805 39.6741211,73.0114258 39.8223633,72.7729492 C39.9706055,72.5344727 40.1661133,72.3421875 40.4088867,72.1960938 C40.6516602,72.05 40.9578125,71.9769531 41.3273438,71.9769531 C41.5679688,71.9769531 41.7860352,72.0177734 41.981543,72.0994141 C42.1770508,72.1810547 42.3457031,72.2916992 42.4875,72.4313477 C42.6292969,72.5709961 42.7420898,72.7342773 42.8258789,72.9211914 C42.909668,73.1081055 42.9601563,73.3089844 42.9773438,73.5238281 L42.9773438,73.5238281 L44.1052734,73.5238281 C44.0880859,73.1671875 44.0107422,72.8341797 43.8732422,72.5248047 C43.7357422,72.2154297 43.5456055,71.9479492 43.302832,71.7223633 C43.0600586,71.4967773 42.772168,71.3195313 42.4391602,71.190625 C42.1061523,71.0617188 41.7355469,70.9972656 41.3273438,70.9972656 C40.803125,70.9972656 40.3476563,71.0907227 39.9609375,71.2776367 C39.5742188,71.4645508 39.2519531,71.7169922 38.9941406,72.0349609 C38.7363281,72.3529297 38.544043,72.7224609 38.4172852,73.1435547 C38.2905273,73.5646484 38.2271484,74.009375 38.2271484,74.4777344 L38.2271484,74.4777344 L38.2271484,74.7484375 C38.2271484,75.2167969 38.2905273,75.6615234 38.4172852,76.0826172 C38.544043,76.5037109 38.7363281,76.8732422 38.9941406,77.1912109 C39.2519531,77.5091797 39.575293,77.7616211 39.9641602,77.9485352 C40.3530273,78.1354492 40.8095703,78.2289063 41.3337891,78.2289063 Z M48.3076172,78.2289063 C48.7974609,78.2289063 49.2378906,78.1397461 49.6289063,77.9614258 C50.0199219,77.7831055 50.3529297,77.5360352 50.6279297,77.2202148 C50.9029297,76.9043945 51.1134766,76.5305664 51.2595703,76.0987305 C51.4056641,75.6668945 51.4787109,75.1974609 51.4787109,74.6904297 L51.4787109,74.6904297 L51.4787109,74.5486328 C51.4787109,74.0416016 51.4056641,73.572168 51.2595703,73.140332 C51.1134766,72.7084961 50.9029297,72.3335938 50.6279297,72.015625 C50.3529297,71.6976563 50.0188477,71.4484375 49.6256836,71.2679688 C49.2325195,71.0875 48.7888672,70.9972656 48.2947266,70.9972656 C47.8091797,70.9972656 47.3708984,71.0875 46.9798828,71.2679688 C46.5888672,71.4484375 46.2569336,71.6976563 45.984082,72.015625 C45.7112305,72.3335938 45.5006836,72.7084961 45.3524414,73.140332 C45.2041992,73.572168 45.1300781,74.0416016 45.1300781,74.5486328 L45.1300781,74.5486328 L45.1300781,74.6904297 C45.1300781,75.1974609 45.2041992,75.6668945 45.3524414,76.0987305 C45.5006836,76.5305664 45.7123047,76.9043945 45.9873047,77.2202148 C46.2623047,77.5360352 46.5953125,77.7831055 46.9863281,77.9614258 C47.3773438,78.1397461 47.8177734,78.2289063 48.3076172,78.2289063 Z M48.3076172,77.2556641 C47.9767578,77.2556641 47.687793,77.1869141 47.4407227,77.0494141 C47.1936523,76.9119141 46.9874023,76.7260742 46.8219727,76.4918945 C46.656543,76.2577148 46.5330078,75.9859375 46.4513672,75.6765625 C46.3697266,75.3671875 46.3289063,75.0384766 46.3289063,74.6904297 L46.3289063,74.6904297 L46.3289063,74.5486328 C46.3289063,74.2048828 46.3697266,73.8772461 46.4513672,73.5657227 C46.5330078,73.2541992 46.656543,72.9813477 46.8219727,72.747168 C46.9874023,72.5129883 47.1925781,72.3260742 47.4375,72.1864258 C47.6824219,72.0467773 47.9681641,71.9769531 48.2947266,71.9769531 C48.6255859,71.9769531 48.915625,72.0467773 49.1648438,72.1864258 C49.4140625,72.3260742 49.6213867,72.5129883 49.7868164,72.747168 C49.9522461,72.9813477 50.0768555,73.2541992 50.1606445,73.5657227 C50.2444336,73.8772461 50.2863281,74.2048828 50.2863281,74.5486328 L50.2863281,74.5486328 L50.2863281,74.6904297 C50.2863281,75.0384766 50.2444336,75.3671875 50.1606445,75.6765625 C50.0768555,75.9859375 49.9533203,76.2577148 49.7900391,76.4918945 C49.6267578,76.7260742 49.4205078,76.9119141 49.1712891,77.0494141 C48.9220703,77.1869141 48.6341797,77.2556641 48.3076172,77.2556641 Z M55.6230469,78.1 L58.1238281,71.1261719 L56.9056641,71.1261719 L55.1783203,76.4822266 L53.4058594,71.1261719 L52.1876953,71.1261719 L54.7142578,78.1 L55.6230469,78.1 Z M62.08125,78.2289063 C62.4292969,78.2289063 62.7408203,78.1913086 63.0158203,78.1161133 C63.2908203,78.040918 63.534668,77.9399414 63.7473633,77.8131836 C63.9600586,77.6864258 64.1458984,77.5424805 64.3048828,77.3813477 C64.4638672,77.2202148 64.5992188,77.0537109 64.7109375,76.8818359 L64.7109375,76.8818359 L63.9826172,76.3146484 C63.7634766,76.5982422 63.5078125,76.8259766 63.215625,76.9978516 C62.9234375,77.1697266 62.5667969,77.2556641 62.1457031,77.2556641 C61.8277344,77.2556641 61.5430664,77.1955078 61.2916992,77.0751953 C61.040332,76.9548828 60.8254883,76.7916016 60.647168,76.5853516 C60.4688477,76.3791016 60.3313477,76.1363281 60.234668,75.8570313 C60.1379883,75.5777344 60.0853516,75.2769531 60.0767578,74.9546875 L60.0767578,74.9546875 L64.8011719,74.9546875 L64.8011719,74.4197266 C64.8011719,73.9298828 64.7453125,73.4765625 64.6335938,73.0597656 C64.521875,72.6429688 64.3489258,72.2820313 64.1147461,71.9769531 C63.8805664,71.671875 63.5830078,71.4323242 63.2220703,71.2583008 C62.8611328,71.0842773 62.4314453,70.9972656 61.9330078,70.9972656 C61.5376953,70.9972656 61.1574219,71.077832 60.7921875,71.2389648 C60.4269531,71.4000977 60.1025391,71.6332031 59.8189453,71.9382813 C59.5353516,72.2433594 59.3086914,72.6193359 59.1389648,73.0662109 C58.9692383,73.5130859 58.884375,74.0201172 58.884375,74.5873047 L58.884375,74.5873047 L58.884375,74.8580078 C58.884375,75.3478516 58.9595703,75.7990234 59.1099609,76.2115234 C59.2603516,76.6240234 59.4751953,76.9795898 59.7544922,77.2782227 C60.0337891,77.5768555 60.3700195,77.8099609 60.7631836,77.9775391 C61.1563477,78.1451172 61.5957031,78.2289063 62.08125,78.2289063 Z M63.6087891,73.975 L60.1154297,73.975 C60.1541016,73.6527344 60.2260742,73.3669922 60.3313477,73.1177734 C60.4366211,72.8685547 60.56875,72.6601563 60.7277344,72.4925781 C60.8867188,72.325 61.0671875,72.197168 61.2691406,72.109082 C61.4710938,72.0209961 61.6923828,71.9769531 61.9330078,71.9769531 C62.2380859,71.9769531 62.49375,72.0328125 62.7,72.1445313 C62.90625,72.25625 63.0749023,72.4023438 63.205957,72.5828125 C63.3370117,72.7632813 63.4336914,72.9673828 63.4959961,73.1951172 C63.5583008,73.4228516 63.5958984,73.6527344 63.6087891,73.8847656 L63.6087891,73.8847656 L63.6087891,73.975 Z M67.3728516,78.1 L67.3728516,73.15 C67.5017578,72.8449219 67.6961914,72.6021484 67.9561523,72.4216797 C68.2161133,72.2412109 68.5523438,72.1509766 68.9648438,72.1509766 C69.0765625,72.1509766 69.1764648,72.1541992 69.2645508,72.1606445 C69.3526367,72.1670898 69.4482422,72.1789063 69.5513672,72.1960938 L69.5513672,72.1960938 L69.5513672,71.0875 C69.5083984,71.0660156 69.4310547,71.0456055 69.3193359,71.0262695 C69.2076172,71.0069336 69.1087891,70.9972656 69.0228516,70.9972656 C68.6361328,70.9972656 68.3074219,71.0810547 68.0367188,71.2486328 C67.7660156,71.4162109 67.5404297,71.6439453 67.3599609,71.9318359 L67.3599609,71.9318359 L67.340625,71.1261719 L66.1804688,71.1261719 L66.1804688,78.1 L67.3728516,78.1 Z M72.5419922,78.2289063 C72.7568359,78.2289063 72.9609375,78.2063477 73.1542969,78.1612305 C73.3476563,78.1161133 73.5270508,78.0538086 73.6924805,77.9743164 C73.8579102,77.8948242 74.0104492,77.8024414 74.1500977,77.697168 C74.2897461,77.5918945 74.4154297,77.48125 74.5271484,77.3652344 C74.5443359,77.5070313 74.5658203,77.643457 74.5916016,77.7745117 C74.6173828,77.9055664 74.6517578,78.0140625 74.6947266,78.1 L74.6947266,78.1 L75.9451172,78.1 L75.9451172,77.996875 C75.8634766,77.8078125 75.8022461,77.5833008 75.7614258,77.3233398 C75.7206055,77.0633789 75.7001953,76.8152344 75.7001953,76.5789063 L75.7001953,76.5789063 L75.7001953,73.3369141 C75.7001953,72.9458984 75.6357422,72.6042969 75.5068359,72.3121094 C75.3779297,72.0199219 75.1996094,71.7760742 74.971875,71.5805664 C74.7441406,71.3850586 74.4702148,71.2389648 74.1500977,71.1422852 C73.8299805,71.0456055 73.4808594,70.9972656 73.1027344,70.9972656 C72.6816406,70.9972656 72.300293,71.0584961 71.9586914,71.180957 C71.6170898,71.303418 71.3259766,71.4624023 71.0853516,71.6579102 C70.8447266,71.853418 70.6588867,72.0736328 70.527832,72.3185547 C70.3967773,72.5634766 70.33125,72.8105469 70.33125,73.0597656 L70.33125,73.0597656 L71.5300781,73.0597656 C71.5300781,72.9136719 71.5666016,72.7740234 71.6396484,72.6408203 C71.7126953,72.5076172 71.8147461,72.3905273 71.9458008,72.2895508 C72.0768555,72.1885742 72.2347656,72.1080078 72.4195313,72.0478516 C72.6042969,71.9876953 72.8083984,71.9576172 73.0318359,71.9576172 C73.5173828,71.9576172 73.8847656,72.0811523 74.1339844,72.3282227 C74.3832031,72.575293 74.5078125,72.9072266 74.5078125,73.3240234 L74.5078125,73.3240234 L74.5078125,73.871875 L73.321875,73.871875 C72.8449219,73.871875 72.4130859,73.9212891 72.0263672,74.0201172 C71.6396484,74.1189453 71.3098633,74.2650391 71.0370117,74.4583984 C70.7641602,74.6517578 70.5546875,74.8913086 70.4085938,75.1770508 C70.2625,75.462793 70.1894531,75.7925781 70.1894531,76.1664063 C70.1894531,76.4542969 70.2453125,76.7239258 70.3570313,76.975293 C70.46875,77.2266602 70.6266602,77.4447266 70.8307617,77.6294922 C71.0348633,77.8142578 71.2819336,77.9603516 71.5719727,78.0677734 C71.8620117,78.1751953 72.1853516,78.2289063 72.5419922,78.2289063 Z M72.7160156,77.1912109 C72.496875,77.1912109 72.3045898,77.1600586 72.1391602,77.0977539 C71.9737305,77.0354492 71.834082,76.9516602 71.7202148,76.8463867 C71.6063477,76.7411133 71.5214844,76.6154297 71.465625,76.4693359 C71.4097656,76.3232422 71.3818359,76.1664063 71.3818359,75.9988281 C71.3818359,75.5691406 71.5666016,75.2479492 71.9361328,75.0352539 C72.3056641,74.8225586 72.8320313,74.7162109 73.5152344,74.7162109 L73.5152344,74.7162109 L74.5078125,74.7162109 L74.5078125,76.1470703 C74.4433594,76.2802734 74.3541992,76.4091797 74.240332,76.5337891 C74.1264648,76.6583984 73.9921875,76.769043 73.8375,76.8657227 C73.6828125,76.9624023 73.5109375,77.0408203 73.321875,77.1009766 C73.1328125,77.1611328 72.9308594,77.1912109 72.7160156,77.1912109 Z M80.2183594,80.8457031 C80.6566406,80.8457031 81.05625,80.78125 81.4171875,80.6523438 C81.778125,80.5234375 82.0896484,80.3354492 82.3517578,80.0883789 C82.6138672,79.8413086 82.8168945,79.5383789 82.9608398,79.1795898 C83.1047852,78.8208008 83.1767578,78.4115234 83.1767578,77.9517578 L83.1767578,77.9517578 L83.1767578,71.1261719 L82.0875,71.1261719 L82.0294922,71.8996094 C81.7974609,71.6074219 81.5181641,71.3839844 81.1916016,71.2292969 C80.8650391,71.0746094 80.4804688,70.9972656 80.0378906,70.9972656 C79.6125,70.9972656 79.2300781,71.0832031 78.890625,71.2550781 C78.5511719,71.4269531 78.262207,71.6686523 78.0237305,71.9801758 C77.7852539,72.2916992 77.6026367,72.6655273 77.4758789,73.1016602 C77.3491211,73.537793 77.2857422,74.0222656 77.2857422,74.5550781 L77.2857422,74.5550781 L77.2857422,74.6904297 C77.2857422,75.2017578 77.3501953,75.6733398 77.4791016,76.1051758 C77.6080078,76.5370117 77.7916992,76.9108398 78.0301758,77.2266602 C78.2686523,77.5424805 78.556543,77.7884766 78.8938477,77.9646484 C79.2311523,78.1408203 79.6082031,78.2289063 80.025,78.2289063 C80.4546875,78.2289063 80.8295898,78.1580078 81.149707,78.0162109 C81.4698242,77.8744141 81.7458984,77.6703125 81.9779297,77.4039063 L81.9779297,77.4039063 L81.9779297,78.0097656 C81.9779297,78.3148438 81.9349609,78.5823242 81.8490234,78.812207 C81.7630859,79.0420898 81.6395508,79.2365234 81.478418,79.3955078 C81.3172852,79.5544922 81.1228516,79.6737305 80.8951172,79.7532227 C80.6673828,79.8327148 80.4138672,79.8724609 80.1345703,79.8724609 C79.9755859,79.8724609 79.8155273,79.8563477 79.6543945,79.8241211 C79.4932617,79.7918945 79.3342773,79.7392578 79.1774414,79.6662109 C79.0206055,79.5931641 78.8648438,79.4964844 78.7101563,79.3761719 C78.5554688,79.2558594 78.4050781,79.1054688 78.2589844,78.925 L78.2589844,78.925 L77.6402344,79.6404297 C77.7949219,79.8681641 77.9818359,80.059375 78.2009766,80.2140625 C78.4201172,80.36875 78.6489258,80.4922852 78.8874023,80.584668 C79.1258789,80.6770508 79.362207,80.7436523 79.5963867,80.7844727 C79.8305664,80.825293 80.0378906,80.8457031 80.2183594,80.8457031 Z M80.3214844,77.2169922 C79.9992188,77.2169922 79.7220703,77.1503906 79.4900391,77.0171875 C79.2580078,76.8839844 79.0678711,76.7035156 78.9196289,76.4757813 C78.7713867,76.2480469 78.6618164,75.9805664 78.590918,75.6733398 C78.5200195,75.3661133 78.4845703,75.0384766 78.4845703,74.6904297 L78.4845703,74.6904297 L78.4845703,74.5550781 C78.4845703,74.2070313 78.5200195,73.8793945 78.590918,73.572168 C78.6618164,73.2649414 78.7724609,72.9953125 78.9228516,72.7632813 C79.0732422,72.53125 79.2644531,72.3475586 79.4964844,72.212207 C79.7285156,72.0768555 80.0078125,72.0091797 80.334375,72.0091797 C80.540625,72.0091797 80.7275391,72.0338867 80.8951172,72.0833008 C81.0626953,72.1327148 81.2141602,72.2025391 81.3495117,72.2927734 C81.4848633,72.3830078 81.6041016,72.4893555 81.7072266,72.6118164 C81.8103516,72.7342773 81.9005859,72.8664063 81.9779297,73.0082031 L81.9779297,73.0082031 L81.9779297,76.1921875 C81.9005859,76.3425781 81.8103516,76.4800781 81.7072266,76.6046875 C81.6041016,76.7292969 81.4848633,76.8367188 81.3495117,76.9269531 C81.2141602,77.0171875 81.0616211,77.0880859 80.8918945,77.1396484 C80.722168,77.1912109 80.5320313,77.2169922 80.3214844,77.2169922 Z M87.8689453,78.2289063 C88.2169922,78.2289063 88.5285156,78.1913086 88.8035156,78.1161133 C89.0785156,78.040918 89.3223633,77.9399414 89.5350586,77.8131836 C89.7477539,77.6864258 89.9335938,77.5424805 90.0925781,77.3813477 C90.2515625,77.2202148 90.3869141,77.0537109 90.4986328,76.8818359 L90.4986328,76.8818359 L89.7703125,76.3146484 C89.5511719,76.5982422 89.2955078,76.8259766 89.0033203,76.9978516 C88.7111328,77.1697266 88.3544922,77.2556641 87.9333984,77.2556641 C87.6154297,77.2556641 87.3307617,77.1955078 87.0793945,77.0751953 C86.8280273,76.9548828 86.6131836,76.7916016 86.4348633,76.5853516 C86.256543,76.3791016 86.119043,76.1363281 86.0223633,75.8570313 C85.9256836,75.5777344 85.8730469,75.2769531 85.8644531,74.9546875 L85.8644531,74.9546875 L90.5888672,74.9546875 L90.5888672,74.4197266 C90.5888672,73.9298828 90.5330078,73.4765625 90.4212891,73.0597656 C90.3095703,72.6429688 90.1366211,72.2820313 89.9024414,71.9769531 C89.6682617,71.671875 89.3707031,71.4323242 89.0097656,71.2583008 C88.6488281,71.0842773 88.2191406,70.9972656 87.7207031,70.9972656 C87.3253906,70.9972656 86.9451172,71.077832 86.5798828,71.2389648 C86.2146484,71.4000977 85.8902344,71.6332031 85.6066406,71.9382813 C85.3230469,72.2433594 85.0963867,72.6193359 84.9266602,73.0662109 C84.7569336,73.5130859 84.6720703,74.0201172 84.6720703,74.5873047 L84.6720703,74.5873047 L84.6720703,74.8580078 C84.6720703,75.3478516 84.7472656,75.7990234 84.8976563,76.2115234 C85.0480469,76.6240234 85.2628906,76.9795898 85.5421875,77.2782227 C85.8214844,77.5768555 86.1577148,77.8099609 86.5508789,77.9775391 C86.944043,78.1451172 87.3833984,78.2289063 87.8689453,78.2289063 Z M89.3964844,73.975 L85.903125,73.975 C85.9417969,73.6527344 86.0137695,73.3669922 86.119043,73.1177734 C86.2243164,72.8685547 86.3564453,72.6601563 86.5154297,72.4925781 C86.6744141,72.325 86.8548828,72.197168 87.0568359,72.109082 C87.2587891,72.0209961 87.4800781,71.9769531 87.7207031,71.9769531 C88.0257813,71.9769531 88.2814453,72.0328125 88.4876953,72.1445313 C88.6939453,72.25625 88.8625977,72.4023438 88.9936523,72.5828125 C89.124707,72.7632813 89.2213867,72.9673828 89.2836914,73.1951172 C89.3459961,73.4228516 89.3835938,73.6527344 89.3964844,73.8847656 L89.3964844,73.8847656 L89.3964844,73.975 Z" id="coverage" fill="#2A3653" fill-rule="nonzero"></path>
                    </g>
                </g>
            </g>
        </g>
    </g>
</svg>