<?xml version="1.0" encoding="UTF-8"?>
<svg width="116px" height="116px" viewBox="0 0 116 116" version="1.1" xmlns="http://www.w3.org/2000/svg" xmlns:xlink="http://www.w3.org/1999/xlink">
    <!-- Generator: Sketch 64 (93537) - https://sketch.com -->
    <title>Silver_70-94_card</title>
    <desc>Created with Sketch.</desc>
    <defs>
        <path d="M72.7865882,18.1273882 C87.7947137,24.3522667 97.8466824,39.6942902 96.5593098,56.7576627 L96.5593098,56.7576627 C94.9557804,78.0179608 76.3530196,94.0100392 55.0927216,92.4060549 L55.0927216,92.4060549 C33.8333333,90.8025255 17.8412549,72.2006745 19.4452392,50.9399216 L19.4452392,50.9399216 L0.166039216,49.4851451 C0.0559529412,50.9472 0.00136470588,52.4010667 0,53.8440157 L0,53.8440157 L0,53.9413647 C0.0268392157,83.9357804 23.2441255,109.391639 53.6388549,111.684345 L53.6388549,111.684345 C85.5302118,114.089867 113.432988,90.1024314 115.83851,58.2119843 L115.83851,58.2119843 C117.769114,32.6169255 102.696392,9.59388235 80.1828392,0.256564706 L80.1828392,0.256564706 L72.7865882,18.1273882 Z" id="path-1"></path>
        <linearGradient x1="67.0994834%" y1="93.3664593%" x2="37.3885985%" y2="14.8401902%" id="linearGradient-3">
            <stop stop-color="#FFFFFF" offset="0%"></stop>
            <stop stop-color="#A1AFCC" offset="100%"></stop>
        </linearGradient>
        <polygon id="path-4" points="0.189830588 -0.000864313725 113.298474 -0.000864313725 113.298474 116 0.189830588 116"></polygon>
    </defs>
    <g id="Page-1" stroke="none" stroke-width="1" fill="none" fill-rule="evenodd">
        <g id="Silver-87-Overview---MVP1" transform="translate(-455.000000, -5353.000000)">
            <g id="Group" transform="translate(330.000000, 5243.000000)">
                <g id="Silver_70-94_card" transform="translate(125.000000, 110.000000)">
                    <g id="Group-5" transform="translate(8.643137, 8.644047)">
                        <path d="M0.334853333,49.3564533 C0.334853333,22.2201867 22.4107906,0.144249412 49.5466024,0.144249412 C76.6824141,0.144249412 98.7588063,22.2201867 98.7588063,49.3564533 C98.7588063,76.4922651 76.6824141,98.5686573 49.5466024,98.5686573 C22.4107906,98.5686573 0.334853333,76.4922651 0.334853333,49.3564533 M10.8799357,49.3564533 C10.8799357,70.6772533 28.2258024,88.0235749 49.5466024,88.0235749 C70.8678573,88.0235749 88.2137239,70.6772533 88.2137239,49.3564533 C88.2137239,28.0351984 70.8678573,10.6893318 49.5466024,10.6893318 C28.2258024,10.6893318 10.8799357,28.0351984 10.8799357,49.3564533" id="Fill-1" fill="#DFE6F3"></path>
                        <path d="M72.3161741,61.7556706 L69.1405035,61.7556706 C69.175531,61.4622588 69.2410369,61.2025098 69.3365663,60.9759686 C69.4320957,60.7494275 69.5526447,60.5601882 69.6968486,60.4077961 C69.8419624,60.2554039 70.0057271,60.138949 70.1890525,60.0593412 C70.3728329,59.9792784 70.5738996,59.9392471 70.7927075,59.9392471 C71.0701976,59.9392471 71.3021976,59.9897412 71.4900722,60.0916392 C71.6774918,60.1926275 71.8307937,60.3254588 71.949978,60.4901333 C72.0691624,60.653898 72.1569584,60.839498 72.2133663,61.0464784 C72.270229,61.2534588 72.3048016,61.4622588 72.3161741,61.6733333 L72.3161741,61.7556706 Z M70.9273584,65.6227922 C71.2439702,65.6227922 71.5273741,65.5886745 71.7771153,65.5199843 C72.0268565,65.451749 72.2488486,65.3598588 72.442182,65.2447686 C72.6355153,65.1296784 72.8042839,64.9986667 72.9489427,64.8521882 C73.0936016,64.7057098 73.2164251,64.5542275 73.3178682,64.3981961 L72.6559859,63.8823373 C72.4571937,64.1402667 72.2242839,64.3472471 71.9586212,64.5037333 C71.6929584,64.6597647 71.3690682,64.7380078 70.9860408,64.7380078 C70.6967231,64.7380078 70.4383388,64.6834196 70.2095231,64.5737882 C69.9811624,64.4646118 69.7860094,64.3158588 69.6236094,64.1284392 C69.4616643,63.9410196 69.3365663,63.7203922 69.2487702,63.4665569 C69.1605192,63.2122667 69.1132094,62.9393255 69.1050212,62.6459137 L73.4002055,62.6459137 L73.4002055,62.1600784 C73.4002055,61.7142745 73.3492565,61.3025882 73.2478133,60.9236549 C73.1463702,60.5447216 72.9889741,60.2162824 72.77608,59.9392471 C72.5631859,59.6617569 72.2925192,59.4438588 71.9649898,59.2855529 C71.6365506,59.127702 71.2457898,59.048549 70.7927075,59.048549 C70.4333349,59.048549 70.0880643,59.1217882 69.755531,59.2682667 C69.4239075,59.4147451 69.1286761,59.6262745 68.8707467,59.9042196 C68.6128173,60.1812549 68.4067467,60.5228863 68.2525349,60.9295686 C68.098778,61.3353412 68.0214447,61.7966118 68.0214447,62.3124706 L68.0214447,62.5585725 C68.0214447,63.0034667 68.08968,63.4137882 68.2266055,63.7886275 C68.3630761,64.1639216 68.558229,64.486902 68.8125192,64.7584784 C69.0658996,65.0296 69.3715937,65.2415843 69.7291467,65.3939765 C70.0866996,65.5463686 70.4861035,65.6227922 70.9273584,65.6227922 L70.9273584,65.6227922 Z M64.0660722,64.7029804 C63.7731153,64.7029804 63.5210996,64.6424784 63.3100251,64.5210196 C63.0994055,64.4000157 62.9265427,64.2357961 62.7918918,64.0288157 C62.6572408,63.8218353 62.5576173,63.5789176 62.4930212,63.2996078 C62.4284251,63.0198431 62.3961271,62.7223373 62.3961271,62.4061804 L62.3961271,62.282902 C62.3961271,61.9662902 62.4284251,61.6687843 62.4930212,61.3890196 C62.5576173,61.1101647 62.6581506,60.8649725 62.7946212,60.653898 C62.9315467,60.4428235 63.1053192,60.2758745 63.3163937,60.153051 C63.5274682,60.0297725 63.7808486,59.9683608 64.0778996,59.9683608 C64.2653192,59.9683608 64.4354525,59.990651 64.5878447,60.0356863 C64.7402369,60.0807216 64.8776173,60.1439529 65.0008957,60.2262902 C65.1237192,60.3081725 65.2324408,60.4046118 65.3261506,60.5160627 C65.4198604,60.6279686 65.5017427,60.7476078 65.5722525,60.8763451 L65.5722525,63.7713412 C65.5017427,63.9078118 65.4198604,64.0329098 65.3261506,64.1461804 C65.2324408,64.259451 65.1237192,64.3572549 65.0008957,64.4386824 C64.8776173,64.5210196 64.7393271,64.5856157 64.5846604,64.6324706 C64.4304486,64.6793255 64.2575859,64.7029804 64.0660722,64.7029804 L64.0660722,64.7029804 Z M63.9723624,68.0014745 C64.3708565,68.0014745 64.7343231,67.9432471 65.0623075,67.8258824 C65.3902918,67.7085176 65.6732408,67.5379294 65.9120643,67.3132078 C66.149978,67.0884863 66.3351231,66.8128157 66.46568,66.486651 C66.5966918,66.1609412 66.6617427,65.7888314 66.6617427,65.3707765 L66.6617427,59.1659137 L65.6718761,59.1659137 L65.6186525,59.8691922 C65.407578,59.6035294 65.1541976,59.3997333 64.8576016,59.2596235 C64.5600957,59.1186039 64.210731,59.048549 63.8085976,59.048549 C63.4214761,59.048549 63.0743859,59.1267922 62.7655075,59.2828235 C62.456629,59.4388549 62.1941506,59.6590275 61.9771624,59.9419765 C61.760629,60.2253804 61.5945898,60.5651922 61.4794996,60.9614118 C61.3639545,61.3580863 61.3066369,61.7984314 61.3066369,62.282902 L61.3066369,62.4061804 C61.3066369,62.8706353 61.3653192,63.2996078 61.482229,63.6921882 C61.5991388,64.0847686 61.7665427,64.4245804 61.9830761,64.7116235 C62.2000643,64.9986667 62.4616329,65.2220235 62.7682369,65.3826039 C63.0752957,65.5427294 63.417382,65.6227922 63.7963153,65.6227922 C64.187531,65.6227922 64.5282525,65.5581961 64.8193898,65.4294588 C65.1100722,65.3002667 65.361178,65.1151216 65.5722525,64.8731137 L65.5722525,65.4235451 C65.5722525,65.7010353 65.533131,65.9439529 65.4548878,66.1527529 C65.3766447,66.3620078 65.2642839,66.5389647 65.1182604,66.6831686 C64.9713271,66.8273725 64.7948251,66.9360941 64.5878447,67.0084235 C64.3808643,67.0807529 64.150229,67.1166902 63.8959388,67.1166902 C63.7517349,67.1166902 63.6066212,67.1021333 63.4596878,67.0725647 C63.3132094,67.043451 63.1690055,66.9961412 63.0261663,66.9292706 C62.883782,66.8633098 62.7418525,66.7750588 62.6017427,66.6658824 C62.4607231,66.556251 62.3237976,66.4197804 62.1909663,66.2555608 L61.6287075,66.9056157 C61.7692722,67.1125961 61.9389506,67.2868235 62.1386525,67.4273882 C62.3374447,67.5679529 62.5453349,67.6803137 62.7623231,67.7644706 C62.9793114,67.8486275 63.1940251,67.9086745 63.4069192,67.9455216 C63.6198133,67.9828235 63.8085976,68.0014745 63.9723624,68.0014745 L63.9723624,68.0014745 Z M57.1520173,64.6793255 C56.9532251,64.6793255 56.7780878,64.6511216 56.6279702,64.5942588 C56.4773976,64.537851 56.3500251,64.4614275 56.2467624,64.365898 C56.1430447,64.2699137 56.0661663,64.1557333 56.0152173,64.022902 C55.9647231,63.8900706 55.9392486,63.7476863 55.9392486,63.5952941 C55.9392486,63.2049882 56.1071075,62.9129412 56.4428251,62.7191529 C56.7789976,62.5258196 57.2575545,62.4289255 57.8789506,62.4289255 L58.7810212,62.4289255 L58.7810212,63.7304 C58.7223388,63.850949 58.6413663,63.9683137 58.5381035,64.0815843 C58.4343859,64.1948549 58.3124722,64.2953882 58.1714525,64.3831843 C58.0313427,64.4714353 57.8748565,64.5424 57.7029035,64.5974431 C57.5309506,64.6520314 57.3476251,64.6793255 57.1520173,64.6793255 L57.1520173,64.6793255 Z M56.9937114,65.6227922 C57.1893192,65.6227922 57.3744643,65.6023216 57.5505114,65.5609255 C57.7265584,65.5199843 57.8894133,65.4631216 58.039531,65.3912471 C58.1901035,65.3189176 58.3288486,65.2347608 58.4557663,65.1392314 C58.5831388,65.043702 58.6973192,64.9431686 58.7983075,64.8371765 C58.814229,64.9668235 58.8337898,65.0905569 58.8569898,65.2097412 C58.8806447,65.3284706 58.911578,65.4271843 58.9506996,65.5054275 L60.0874996,65.5054275 L60.0874996,65.4117176 C60.0133506,65.2397647 59.9578525,65.0359686 59.9205506,64.7994196 C59.8837035,64.5633255 59.8650525,64.3376941 59.8650525,64.1225255 L59.8650525,61.1756706 C59.8650525,60.8199373 59.8063702,60.5096941 59.6890055,60.2440314 C59.5720957,59.9783686 59.4101506,59.7563765 59.2031702,59.5789647 C58.9961898,59.401098 58.7469035,59.2682667 58.4557663,59.1804706 C58.1650839,59.0926745 57.8471075,59.048549 57.5036565,59.048549 C57.1210839,59.048549 56.7739937,59.1040471 56.4632957,59.215498 C56.1530525,59.326949 55.8887545,59.4716078 55.6694918,59.6490196 C55.4511388,59.8268863 55.2819153,60.0270431 55.162731,60.2494902 C55.0435467,60.4723922 54.9839545,60.6971137 54.9839545,60.9236549 L56.0738996,60.9236549 C56.0738996,60.7908235 56.1071075,60.6639059 56.173978,60.5424471 C56.2399388,60.4214431 56.3327388,60.3149961 56.4519231,60.2235608 C56.5711075,60.1316706 56.7144016,60.0584314 56.8822604,60.0033882 C57.0505741,59.9488 57.2361741,59.9215059 57.4390604,59.9215059 C57.8807702,59.9215059 58.2146682,60.0338667 58.4412094,60.2585882 C58.6677506,60.4828549 58.7810212,60.7849098 58.7810212,61.1633882 L58.7810212,61.6619608 L57.7029035,61.6619608 C57.269382,61.6619608 56.8768016,61.7069961 56.5251624,61.7966118 C56.173978,61.8862275 55.8737427,62.0190588 55.6258212,62.1951059 C55.3778996,62.3711529 55.1872957,62.5885961 55.0544643,62.8478902 C54.9216329,63.1080941 54.8552173,63.4078745 54.8552173,63.7476863 C54.8552173,64.0092549 54.9061663,64.2544471 55.0076094,64.4828078 C55.1090525,64.7116235 55.2528016,64.9099608 55.4379467,65.0778196 C55.6240016,65.2456784 55.8482682,65.3785098 56.1121114,65.4763137 C56.3759545,65.5741176 56.6693663,65.6227922 56.9937114,65.6227922 L56.9937114,65.6227922 Z M52.2945741,65.5054275 L52.2945741,61.0055373 C52.4119388,60.7280471 52.5888957,60.5074196 52.8249898,60.3436549 C53.0615388,60.1794353 53.3672329,60.097098 53.7420722,60.097098 C53.8435153,60.097098 53.9344957,60.1002824 54.0145584,60.1061961 C54.0941663,60.1121098 54.1815075,60.1225725 54.2752173,60.1380392 L54.2752173,59.1304314 C54.2360957,59.1113255 54.1660408,59.0926745 54.0641427,59.0744784 C53.9626996,59.0571922 53.872629,59.048549 53.7943859,59.048549 C53.4432016,59.048549 53.1438761,59.1245176 52.8977741,59.2769098 C52.6521271,59.429302 52.4469663,59.6362824 52.2832016,59.8983059 L52.2654604,59.1659137 L51.2105427,59.1659137 L51.2105427,65.5054275 L52.2945741,65.5054275 Z M48.8728016,61.7556706 L45.697131,61.7556706 C45.7321584,61.4622588 45.7976643,61.2025098 45.8931937,60.9759686 C45.989178,60.7494275 46.1092722,60.5601882 46.253931,60.4077961 C46.3981349,60.2554039 46.5623545,60.138949 46.7461349,60.0593412 C46.9294604,59.9792784 47.1305271,59.9392471 47.3493349,59.9392471 C47.6268251,59.9392471 47.85928,59.9897412 48.0466996,60.0916392 C48.2341192,60.1926275 48.3874212,60.3254588 48.5066055,60.4901333 C48.6257898,60.653898 48.7135859,60.839498 48.7704486,61.0464784 C48.8268565,61.2534588 48.8609741,61.4622588 48.8728016,61.6733333 L48.8728016,61.7556706 Z M47.4839859,65.6227922 C47.8005976,65.6227922 48.0835467,65.5886745 48.3337427,65.5199843 C48.5839388,65.451749 48.8054761,65.3598588 48.9988094,65.2447686 C49.1921427,65.1296784 49.3613663,64.9986667 49.5055702,64.8521882 C49.650229,64.7057098 49.7730525,64.5542275 49.8749506,64.3981961 L49.2126133,63.8823373 C49.0133663,64.1402667 48.7809114,64.3472471 48.5152486,64.5037333 C48.2495859,64.6597647 47.9256957,64.7380078 47.5426682,64.7380078 C47.2538055,64.7380078 46.9949663,64.6834196 46.7661506,64.5737882 C46.5377898,64.4646118 46.3426369,64.3158588 46.1802369,64.1284392 C46.0182918,63.9410196 45.8931937,63.7203922 45.8053976,63.4665569 C45.7176016,63.2122667 45.6698369,62.9393255 45.6621035,62.6459137 L49.9568329,62.6459137 L49.9568329,62.1600784 C49.9568329,61.7142745 49.9058839,61.3025882 49.8044408,60.9236549 C49.7029976,60.5447216 49.5456016,60.2162824 49.3327075,59.9392471 C49.1198133,59.6617569 48.8496016,59.4438588 48.5211624,59.2855529 C48.193178,59.127702 47.8024173,59.048549 47.3493349,59.048549 C46.9899624,59.048549 46.6442369,59.1217882 46.3121584,59.2682667 C45.98008,59.4147451 45.6853035,59.6262745 45.4273741,59.9042196 C45.1698996,60.1812549 44.963829,60.5228863 44.8091624,60.9295686 C44.6549506,61.3353412 44.5776173,61.7966118 44.5776173,62.3124706 L44.5776173,62.5585725 C44.5776173,63.0034667 44.6463075,63.4137882 44.7832329,63.7886275 C44.9197035,64.1639216 45.1148565,64.486902 45.3691467,64.7584784 C45.622982,65.0296 45.9286761,65.2415843 46.2857741,65.3939765 C46.6433271,65.5463686 47.042731,65.6227922 47.4839859,65.6227922 L47.4839859,65.6227922 Z M41.6130212,65.5054275 L43.8866212,59.1659137 L42.7789349,59.1659137 L41.2086133,64.0347294 L39.5973506,59.1659137 L38.4901192,59.1659137 L40.7869192,65.5054275 L41.6130212,65.5054275 Z M34.9628094,64.7380078 C34.6621192,64.7380078 34.3991859,64.6752314 34.1744643,64.5505882 C33.9501976,64.4254902 33.762778,64.2562667 33.6117506,64.0433725 C33.4616329,63.8309333 33.3492722,63.5839216 33.2751231,63.3023373 C33.2009741,63.0212078 33.1636722,62.7223373 33.1636722,62.4061804 L33.1636722,62.2769882 C33.1636722,61.9644706 33.2009741,61.6669647 33.2751231,61.3835608 C33.3492722,61.1006118 33.4616329,60.8522353 33.6117506,60.6393412 C33.762778,60.4264471 33.9488329,60.2563137 34.1717349,60.1293961 C34.394182,60.0024784 34.6543859,59.9392471 34.950982,59.9392471 C35.2516722,59.9392471 35.5155153,60.0024784 35.7420565,60.1293961 C35.9685976,60.2563137 36.1569271,60.4264471 36.3074996,60.6393412 C36.4576173,60.8522353 36.5708878,61.1006118 36.6473114,61.3835608 C36.72328,61.6669647 36.7614918,61.9644706 36.7614918,62.2769882 L36.7614918,62.4061804 C36.7614918,62.7223373 36.72328,63.0212078 36.6473114,63.3023373 C36.5708878,63.5839216 36.4585271,63.8309333 36.310229,64.0433725 C36.161931,64.2562667 35.9745114,64.4254902 35.7479702,64.5505882 C35.521429,64.6752314 35.2594055,64.7380078 34.9628094,64.7380078 L34.9628094,64.7380078 Z M34.9628094,65.6227922 C35.4081584,65.6227922 35.8084722,65.5413647 36.1637506,65.3794196 C36.5194839,65.2174745 36.8219937,64.9927529 37.0717349,64.7057098 C37.321931,64.4186667 37.5134447,64.0784 37.6462761,63.6862745 C37.7791075,63.2936941 37.8455231,62.8665412 37.8455231,62.4061804 L37.8455231,62.2769882 C37.8455231,61.8161725 37.7791075,61.3890196 37.6462761,60.9968941 C37.5134447,60.6043137 37.321931,60.2635922 37.0717349,59.9742745 C36.8219937,59.6849569 36.5185741,59.4584157 36.1610212,59.294651 C35.8034682,59.1304314 35.4004251,59.048549 34.950982,59.048549 C34.5097271,59.048549 34.1112329,59.1304314 33.7554996,59.294651 C33.4002212,59.4584157 33.0986212,59.6849569 32.8502447,59.9742745 C32.6023231,60.2635922 32.4108094,60.6043137 32.2761584,60.9968941 C32.1415075,61.3890196 32.074182,61.8161725 32.074182,62.2769882 L32.074182,62.4061804 C32.074182,62.8665412 32.1415075,63.2936941 32.2761584,63.6862745 C32.4108094,64.0784 32.6032329,64.4186667 32.853429,64.7057098 C33.1031702,64.9927529 33.4061349,65.2174745 33.7614133,65.3794196 C34.1166918,65.5413647 34.5174604,65.6227922 34.9628094,65.6227922 L34.9628094,65.6227922 Z M28.6228408,65.6227922 C28.9585584,65.6227922 29.27608,65.5650196 29.5749506,65.4499294 C29.8738212,65.3343843 30.1362996,65.1801725 30.3628408,64.9872941 C30.589382,64.7935059 30.7722525,64.5692392 30.9109976,64.3131294 C31.0497427,64.0574745 31.1266212,63.7886275 31.1425427,63.507498 L30.1167388,63.507498 C30.1012722,63.6830902 30.0516878,63.8464 29.967531,63.9969725 C29.8833741,64.1470902 29.7741976,64.2771922 29.6395467,64.3863686 C29.5048957,64.4955451 29.3493192,64.5815216 29.1737271,64.644298 C28.99768,64.7066196 28.8143545,64.7380078 28.6228408,64.7380078 C28.283029,64.7380078 28.0014447,64.6715922 27.7789976,64.5387608 C27.5560957,64.4059294 27.3786839,64.231702 27.2458525,64.0174431 C27.1130212,63.8022745 27.0193114,63.5593569 26.9647231,63.2877804 C26.9101349,63.0162039 26.8828408,62.7396235 26.8828408,62.4584941 L26.8828408,62.2123922 C26.8828408,61.9389961 26.9101349,61.6669647 26.9647231,61.3949333 C27.0193114,61.1233569 27.113931,60.8795294 27.2490369,60.6629961 C27.3836878,60.4460078 27.5610996,60.2708706 27.782182,60.1380392 C28.0028094,60.0052078 28.2812094,59.9392471 28.6169271,59.9392471 C28.8357349,59.9392471 29.0340722,59.9760941 29.2119388,60.0502431 C29.3893506,60.1248471 29.5426525,60.2253804 29.6713898,60.352298 C29.800582,60.4787608 29.9029349,60.6279686 29.9793584,60.7976471 C30.0553271,60.9677804 30.1012722,61.1501961 30.1167388,61.345349 L31.1425427,61.345349 C31.1266212,61.0214588 31.0565663,60.7184941 30.9314682,60.4373647 C30.8063702,60.1557804 30.6335075,59.9124078 30.41288,59.707702 C30.1922525,59.5025412 29.930229,59.341051 29.6277192,59.2245961 C29.3252094,59.1072314 28.9881271,59.048549 28.6169271,59.048549 C28.1406447,59.048549 27.726229,59.1331608 27.3750447,59.3032941 C27.0234055,59.4729725 26.7304486,59.702698 26.4957192,59.9920157 C26.2614447,60.2808784 26.0867624,60.6165961 25.9716722,60.9996235 C25.8561271,61.382651 25.7988094,61.7866039 25.7988094,62.2123922 L25.7988094,62.4584941 C25.7988094,62.8842824 25.8561271,63.2886902 25.9716722,63.6717176 C26.0867624,64.0542902 26.2614447,64.3904627 26.4957192,64.6793255 C26.7304486,64.9681882 27.0243153,65.1979137 27.3777741,65.3675922 C27.7312329,65.5377255 28.1461035,65.6227922 28.6228408,65.6227922 L28.6228408,65.6227922 Z" id="Fill-3" fill="#2A3653"></path>
                    </g>
                    <g id="Group-8" transform="translate(0.000000, 4.095027)">
                        <mask id="mask-2" fill="white">
                            <use xlink:href="#path-1"></use>
                        </mask>
                        <g id="Clip-7"></g>
                        <path d="M72.7865882,18.1273882 C87.7947137,24.3522667 97.8466824,39.6942902 96.5593098,56.7576627 L96.5593098,56.7576627 C94.9557804,78.0179608 76.3530196,94.0100392 55.0927216,92.4060549 L55.0927216,92.4060549 C33.8333333,90.8025255 17.8412549,72.2006745 19.4452392,50.9399216 L19.4452392,50.9399216 L0.166039216,49.4851451 C0.0559529412,50.9472 0.00136470588,52.4010667 0,53.8440157 L0,53.8440157 L0,53.9413647 C0.0268392157,83.9357804 23.2441255,109.391639 53.6388549,111.684345 L53.6388549,111.684345 C85.5302118,114.089867 113.432988,90.1024314 115.83851,58.2119843 L115.83851,58.2119843 C117.769114,32.6169255 102.696392,9.59388235 80.1828392,0.256564706 L80.1828392,0.256564706 L72.7865882,18.1273882 Z" id="Fill-6" fill="url(#linearGradient-3)" mask="url(#mask-2)"></path>
                    </g>
                    <g id="Group-26" transform="translate(0.000000, 0.000910)">
                        <g id="Group-11">
                            <mask id="mask-5" fill="white">
                                <use xlink:href="#path-4"></use>
                            </mask>
                            <g id="Clip-10"></g>
                            <path d="M94.9222541,70.0544925 C89.8437286,85.4888612 75.3018776,96.6658024 58.1898306,96.6658024 C36.8690306,96.6658024 19.522709,79.3199357 19.522709,57.9991357 C19.522709,36.6787906 36.8690306,19.3329239 58.1898306,19.3329239 L58.1898306,-0.000864313725 C26.208858,-0.000864313725 0.189830588,26.0190729 0.189830588,57.9991357 C0.189830588,89.981018 26.208858,116.000045 58.1898306,116.000045 C83.8581286,116.000045 105.681595,99.2373631 113.298474,76.0855827 L94.9222541,70.0544925 Z" id="Fill-9" fill="#A2AFCC" mask="url(#mask-5)"></path>
                        </g>
                        <polygon id="Fill-12" fill="#2A3653" points="36.2119247 46.3882635 31.9599561 56.1659263 29.6567875 56.1659263 33.9160345 46.9295969 28.4485678 46.9295969 28.4485678 45.1700361 36.2119247 45.1700361"></polygon>
                        <path d="M42.8275184,49.3942557 C42.8275184,48.4821773 42.7028753,47.8180204 42.453589,47.40224 C42.2043027,46.9864596 41.8153616,46.7785694 41.2867655,46.7785694 C40.7731812,46.7785694 40.3942478,46.9764518 40.1504204,47.3722165 C39.906138,47.7675263 39.776491,48.3861929 39.7614792,49.2277616 L39.7614792,51.9039498 C39.7614792,52.8010165 39.8833929,53.4674478 40.1276753,53.9032439 C40.3719576,54.3394949 40.7631733,54.5573929 41.3017773,54.5573929 C41.8353773,54.5573929 42.2206792,54.348138 42.4576831,53.9296282 C42.6942322,53.5115733 42.8175106,52.8715263 42.8275184,52.009942 L42.8275184,49.3942557 Z M45.010138,51.6196361 C45.010138,53.1399184 44.6953459,54.3031027 44.0662165,55.1087341 C43.4366322,55.9143655 42.5150008,56.3169537 41.3017773,56.3169537 C40.1035655,56.3169537 39.1873929,55.9216439 38.5532596,55.1310243 C37.9186714,54.3408596 37.5938714,53.2081537 37.5788596,51.7329067 L37.5788596,49.7085929 C37.5788596,48.1732988 37.897291,47.00784 38.5341537,46.2122165 C39.1710165,45.4165929 40.0885537,45.0190086 41.2867655,45.0190086 C42.4849773,45.0190086 43.4016047,45.4129537 44.035738,46.2008439 C44.6703263,46.9887341 44.9951263,48.1205302 45.010138,49.5953224 L45.010138,51.6196361 Z" id="Fill-14" fill="#2A3653"></path>
                        <path d="M50.1244188,49.0010839 L50.1244188,50.3976329 L51.2011718,50.3976329 L51.2011718,51.1600486 L50.1244188,51.1600486 L50.1244188,54.7414918 C50.1244188,54.9730369 50.1721835,55.1463545 50.2681678,55.2618996 C50.3641522,55.3778996 50.5279169,55.4356722 50.7590071,55.4356722 C50.8727325,55.4356722 51.0287639,55.4142918 51.228011,55.371531 L51.228011,56.1662447 C50.968262,56.2372094 50.7162463,56.2722369 50.4710541,56.2722369 C50.0302541,56.2722369 49.6981757,56.1389506 49.473909,55.872378 C49.2500973,55.6062604 49.1381914,55.227782 49.1381914,54.7369427 L49.1381914,51.1600486 L48.0878227,51.1600486 L48.0878227,50.3976329 L49.1381914,50.3976329 L49.1381914,49.0010839 L50.1244188,49.0010839 Z" id="Fill-16" fill="#2A3653"></path>
                        <path d="M52.9764267,53.3457616 C52.9764267,53.9853537 53.1247247,54.498938 53.4217757,54.8865145 C53.7183718,55.2736361 54.1155012,55.4674243 54.6131639,55.4674243 C55.114011,55.4674243 55.5120502,55.2709067 55.8072816,54.8783263 C56.102058,54.4857459 56.2494463,53.9357694 56.2494463,53.2283969 C56.2494463,52.5960831 56.0993286,52.0834086 55.7990933,51.6903733 C55.498858,51.2977929 55.099909,51.1012753 54.6022463,51.1012753 C54.1155012,51.1012753 53.7229208,51.2950635 53.4240502,51.68264 C53.1256345,52.0697616 52.9764267,52.6242871 52.9764267,53.3457616 L52.9764267,53.3457616 Z M51.9847404,53.2283969 C51.9847404,52.6634086 52.0957365,52.1552831 52.3181835,51.7040204 C52.5401757,51.2523027 52.849509,50.9043027 53.2457286,50.6591106 C53.6419482,50.4139184 54.0941208,50.2910949 54.6022463,50.2910949 C55.387862,50.2910949 56.0229051,50.5631263 56.5082855,51.1067341 C56.993211,51.650342 57.2356737,52.3736361 57.2356737,53.2766165 L57.2356737,53.3457616 C57.2356737,53.9071106 57.1283169,54.411142 56.9131482,54.8569459 C56.6984345,55.3032047 56.3909208,55.6502949 55.991062,55.8991263 C55.5912031,56.1479576 55.1317522,56.2726008 54.6131639,56.2726008 C53.8311875,56.2726008 53.197509,56.0005694 52.7125835,55.4569616 C52.227658,54.9128988 51.9847404,54.1932439 51.9847404,53.2979969 L51.9847404,53.2283969 Z" id="Fill-18" fill="#2A3653"></path>
                        <path d="M63.621542,50.9397396 C63.9736361,50.9397396 64.2770557,50.8492141 64.5313459,50.6677082 C64.7856361,50.4866573 64.9780596,50.2673945 65.1095263,50.0108298 L65.1095263,49.1119435 C65.1095263,48.371818 64.9680518,47.7981867 64.6864675,47.3901396 C64.4044282,46.9825475 64.0268596,46.7787514 63.5537616,46.7787514 C63.115691,46.7787514 62.7554086,46.9784533 62.4738243,47.3787671 C62.1913302,47.7790808 62.0507655,48.2812925 62.0507655,48.8854024 C62.0507655,49.4849631 62.187691,49.9767122 62.4619969,50.3620141 C62.7367576,50.7473161 63.1229694,50.9397396 63.621542,50.9397396 M65.0790478,51.7703906 C64.5099655,52.3294651 63.8453537,52.6087749 63.0852125,52.6087749 C62.113542,52.6087749 61.3356596,52.2753318 60.7515655,51.6079906 C60.1674714,50.9411043 59.8758792,50.0408533 59.8758792,48.9081475 C59.8758792,48.1884925 60.0328204,47.52752 60.3476125,46.9256847 C60.6619498,46.3243043 61.1013851,45.8562102 61.6654635,45.5209475 C62.2290871,45.1865945 62.8636753,45.0187357 63.5687733,45.0187357 C64.2938871,45.0187357 64.9380282,45.2002416 65.5021067,45.5627984 C66.0657302,45.9253553 66.5038008,46.446218 66.8158635,47.1258416 C67.1279263,47.8054651 67.2866871,48.5833475 67.291691,49.4594886 L67.291691,50.2673945 C67.291691,52.1001945 66.8358792,53.5404141 65.9247106,54.5875984 C65.013542,55.6347827 63.7220753,56.1934024 62.0507655,56.2639122 L61.5144361,56.2716455 L61.5144361,54.4515827 L61.9979969,54.4438494 C63.8958478,54.3583278 64.9225616,53.4671749 65.0790478,51.7703906" id="Fill-20" fill="#2A3653"></path>
                        <path d="M70.6902635,52.0272282 L73.1221694,52.0272282 L73.1221694,48.1455498 L72.9784204,48.3948361 L70.6902635,52.0272282 Z M75.304789,52.0272282 L76.5507655,52.0272282 L76.5507655,53.786789 L75.304789,53.786789 L75.304789,56.1659263 L73.1221694,56.1659263 L73.1221694,53.786789 L68.6136361,53.786789 L68.5153773,52.4125302 L73.0994243,45.1700361 L75.304789,45.1700361 L75.304789,52.0272282 Z" id="Fill-22" fill="#2A3653"></path>
                        <path d="M84.3973239,54.0587749 C84.3973239,54.3358102 84.4878494,54.5723592 84.6693553,54.7688769 C84.8504063,54.9649396 85.0769475,55.0631984 85.3489788,55.0631984 C85.9626416,55.0631984 86.2701553,54.7233867 86.2701553,54.0437631 L86.2701553,53.4696769 C86.2701553,53.167622 86.1846337,52.9247043 86.0135906,52.7409239 C85.8420925,52.5571435 85.6155514,52.4652533 85.3339671,52.4652533 C85.0514729,52.4652533 84.8249318,52.5571435 84.6538886,52.7409239 C84.4823906,52.9247043 84.3973239,53.1753553 84.3973239,53.492422 L84.3973239,54.0587749 Z M82.9470965,53.4696769 C82.9470965,52.7900533 83.1686337,52.2423514 83.6117082,51.8270259 C84.0547827,51.4117004 84.628869,51.2042651 85.3339671,51.2042651 C86.048618,51.2042651 86.6258886,51.4094259 87.0666886,51.8197475 C87.5074886,52.230069 87.7276612,52.7950573 87.7276612,53.5151671 L87.7276612,54.0587749 C87.7276612,54.7333945 87.5111278,55.2783671 87.0785161,55.6936925 C86.6449945,56.109018 86.0686337,56.3169082 85.3489788,56.3169082 C84.6238651,56.3169082 84.0425004,56.1081082 83.6044298,55.6900533 C83.1663592,55.2719984 82.9470965,54.7183827 82.9470965,54.0287514 L82.9470965,53.4696769 Z M80.5156455,55.3425082 L79.45072,54.7688769 L84.8203827,46.1744141 L85.8853082,46.7485004 L80.5156455,55.3425082 Z M79.1409318,47.8661945 C79.1409318,48.1682494 79.227818,48.4111671 79.4015906,48.5949475 C79.5749082,48.7787278 79.8028141,48.870618 80.0853082,48.870618 C80.3668925,48.870618 80.5911592,48.7773631 80.7571984,48.5908533 C80.9232376,48.4047984 81.0064847,48.1555122 81.0064847,47.8434494 L81.0064847,47.2843749 C81.0064847,46.98232 80.9232376,46.7384925 80.7571984,46.5519827 C80.5911592,46.3659278 80.3618886,46.2726729 80.0698416,46.2726729 C79.7928063,46.2726729 79.5689945,46.3645631 79.3979514,46.5483435 C79.2264533,46.7321239 79.1409318,46.9877788 79.1409318,47.3148533 L79.1409318,47.8661945 Z M77.6911592,47.2843749 C77.6911592,46.6097553 77.9099671,46.0625082 78.3480376,45.6421788 C78.7861082,45.2218494 79.3601945,45.0112298 80.0698416,45.0112298 C80.7894965,45.0112298 81.3690416,45.21912 81.8071122,45.6344455 C82.2451827,46.049771 82.4639906,46.6124847 82.4639906,47.3221318 L82.4639906,47.8661945 C82.4639906,48.545818 82.2451827,49.0921553 81.8071122,49.5047514 C81.3690416,49.9178024 80.7949553,50.1243278 80.0853082,50.1243278 C79.3697475,50.1243278 78.7924769,49.9164376 78.3516769,49.5011122 C77.9108769,49.0857867 77.6911592,48.5258024 77.6911592,47.8207043 L77.6911592,47.2843749 Z" id="Fill-24" fill="#2A3653"></path>
                    </g>
                </g>
            </g>
        </g>
    </g>
</svg>